<svg xmlns="http://www.w3.org/2000/svg" xmlns:xlink="http://www.w3.org/1999/xlink"><defs><symbol viewBox="0 0 13 20" id="arrow">
    <path d="m2 2 8 8.178L2.347 18" stroke="#FFF" stroke-width="4" fill="black" fill-rule="evenodd" stroke-linecap="round" />
</symbol><symbol viewBox="0 0 24 24" fill="none" id="arrow-a">
  <g clip-path="url(#arrow-a_clip0_1677_86320)">
    <path d="M12 24C18.6274 24 24 18.6274 24 12C24 5.37258 18.6274 0 12 0C5.37258 0 0 5.37258 0 12C0 18.6274 5.37258 24 12 24Z" fill="#07412C" />
    <path fill-rule="evenodd" clip-rule="evenodd" d="M13.4864 7.00827C13.8784 6.64063 14.4866 6.66887 14.8448 7.07134L18.4986 11.1773C18.8341 11.5543 18.8341 12.1316 18.4986 12.5086L14.8448 16.6146C14.4866 17.017 13.8784 17.0453 13.4864 16.6776C13.0943 16.31 13.0668 15.6857 13.4249 15.2832L15.6081 12.83H6.21178C5.68074 12.83 5.25024 12.3881 5.25024 11.8429C5.25024 11.2978 5.68074 10.8559 6.21178 10.8559H15.6081L13.4249 8.40268C13.0668 8.00021 13.0943 7.37591 13.4864 7.00827Z" fill="white" />
  </g>
  <defs>
    
  </defs>
</symbol><clipPath id="arrow-a_clip0_1677_86320">
      <rect width="24" height="24" fill="white" />
    </clipPath><symbol viewBox="0 0 24 24" fill="none" id="arrow-a copy">
  <g clip-path="url(#arrow-a copy_clip0_1677_86320)">
    <path d="M12 24C18.6274 24 24 18.6274 24 12C24 5.37258 18.6274 0 12 0C5.37258 0 0 5.37258 0 12C0 18.6274 5.37258 24 12 24Z" fill="#07412C" />
    <path fill-rule="evenodd" clip-rule="evenodd" d="M13.4864 7.00827C13.8784 6.64063 14.4866 6.66887 14.8448 7.07134L18.4986 11.1773C18.8341 11.5543 18.8341 12.1316 18.4986 12.5086L14.8448 16.6146C14.4866 17.017 13.8784 17.0453 13.4864 16.6776C13.0943 16.31 13.0668 15.6857 13.4249 15.2832L15.6081 12.83H6.21178C5.68074 12.83 5.25024 12.3881 5.25024 11.8429C5.25024 11.2978 5.68074 10.8559 6.21178 10.8559H15.6081L13.4249 8.40268C13.0668 8.00021 13.0943 7.37591 13.4864 7.00827Z" fill="white" />
  </g>
  <defs>
    
  </defs>
</symbol><clipPath id="arrow-a copy_clip0_1677_86320">
      <rect width="24" height="24" fill="white" />
    </clipPath><symbol viewBox="0 0 24 24" fill="none" id="arrow-b">
  <path d="M3 9L21 2.5L15 21L12 14.5L6.5 20L4 17.5L9.5 12L3 9Z" fill="#07412C" />
</symbol><symbol viewBox="0 0 24 24" fill="none" id="arrow-b copy">
  <path d="M3 9L21 2.5L15 21L12 14.5L6.5 20L4 17.5L9.5 12L3 9Z" fill="#07412C" />
</symbol><symbol viewBox="0 0 24 25" fill="none" id="arrow-c">
  <path d="M20.3197 10.2074C20.1564 10.2074 19.9998 10.1424 19.8844 10.0268C19.7689 9.91118 19.7041 9.75436 19.7041 9.59083V4.99841H15.1185C14.9552 4.99841 14.7986 4.93345 14.6832 4.81782C14.5677 4.70219 14.5029 4.54536 14.5029 4.38183C14.5029 4.21831 14.5677 4.06148 14.6832 3.94585C14.7986 3.83022 14.9552 3.76526 15.1185 3.76526H20.3197C20.483 3.76526 20.6396 3.83022 20.755 3.94585C20.8705 4.06148 20.9354 4.21831 20.9354 4.38183V9.59083C20.9354 9.75436 20.8705 9.91118 20.755 10.0268C20.6396 10.1424 20.483 10.2074 20.3197 10.2074V10.2074Z" fill="#07412C" stroke="#07412C" stroke-width="0.383472" stroke-miterlimit="10" />
  <path d="M10.6815 14.5659C10.6012 14.5661 10.5218 14.5491 10.4486 14.5161C10.3754 14.4831 10.3101 14.4349 10.2569 14.3746C10.1465 14.2564 10.0851 14.1006 10.0851 13.9387C10.0851 13.7769 10.1465 13.6211 10.2569 13.5029L19.5554 4.27552C19.612 4.21597 19.68 4.16837 19.7553 4.13551C19.8305 4.10266 19.9116 4.08522 19.9937 4.08421C20.0758 4.08321 20.1573 4.09867 20.2334 4.12967C20.3094 4.16068 20.3785 4.20661 20.4366 4.26476C20.4946 4.32291 20.5405 4.3921 20.5715 4.46827C20.6024 4.54443 20.6178 4.62603 20.6168 4.70826C20.6158 4.79049 20.5984 4.87169 20.5656 4.94707C20.5328 5.02246 20.4853 5.09051 20.4258 5.14723L11.1061 14.3959C10.9887 14.5003 10.8385 14.5604 10.6815 14.5659V14.5659Z" fill="#07412C" stroke="#07412C" stroke-width="0.383472" stroke-miterlimit="10" />
  <path d="M15.1482 21.2547H6.28706C5.53418 21.2514 4.8131 20.9504 4.28073 20.4172C3.74836 19.884 3.44779 19.1619 3.44444 18.4079V9.53343C3.44779 8.77943 3.74836 8.05726 4.28073 7.52409C4.8131 6.99093 5.53418 6.68991 6.28706 6.68655H11.9765C12.0974 6.69464 12.2108 6.74844 12.2935 6.83707C12.3763 6.92569 12.4224 7.04251 12.4224 7.16387C12.4224 7.28522 12.3763 7.40204 12.2935 7.49067C12.2108 7.57929 12.0974 7.6331 11.9765 7.64118H6.28706C5.78576 7.64118 5.30496 7.84048 4.95029 8.19528C4.59562 8.55008 4.39608 9.03138 4.39552 9.53343V18.4079C4.39608 18.9099 4.59562 19.3912 4.95029 19.746C5.30496 20.1008 5.78576 20.3001 6.28706 20.3001H15.1482C15.6495 20.3001 16.1303 20.1008 16.485 19.746C16.8397 19.3912 17.0392 18.9099 17.0397 18.4079V12.4972C17.0478 12.3762 17.1015 12.2627 17.19 12.1798C17.2785 12.0969 17.3952 12.0507 17.5163 12.0507C17.6375 12.0507 17.7542 12.0969 17.8427 12.1798C17.9312 12.2627 17.9849 12.3762 17.9929 12.4972V18.4079C17.9896 19.1622 17.6887 19.8847 17.1559 20.4179C16.6231 20.9512 15.9015 21.2519 15.1482 21.2547V21.2547Z" fill="#07412C" stroke="#07412C" stroke-width="0.766944" stroke-miterlimit="10" />
</symbol><symbol viewBox="0 0 24 25" fill="none" id="arrow-c copy">
  <path d="M20.3197 10.2074C20.1564 10.2074 19.9998 10.1424 19.8844 10.0268C19.7689 9.91118 19.7041 9.75436 19.7041 9.59083V4.99841H15.1185C14.9552 4.99841 14.7986 4.93345 14.6832 4.81782C14.5677 4.70219 14.5029 4.54536 14.5029 4.38183C14.5029 4.21831 14.5677 4.06148 14.6832 3.94585C14.7986 3.83022 14.9552 3.76526 15.1185 3.76526H20.3197C20.483 3.76526 20.6396 3.83022 20.755 3.94585C20.8705 4.06148 20.9354 4.21831 20.9354 4.38183V9.59083C20.9354 9.75436 20.8705 9.91118 20.755 10.0268C20.6396 10.1424 20.483 10.2074 20.3197 10.2074V10.2074Z" fill="#07412C" stroke="#07412C" stroke-width="0.383472" stroke-miterlimit="10" />
  <path d="M10.6815 14.5659C10.6012 14.5661 10.5218 14.5491 10.4486 14.5161C10.3754 14.4831 10.3101 14.4349 10.2569 14.3746C10.1465 14.2564 10.0851 14.1006 10.0851 13.9387C10.0851 13.7769 10.1465 13.6211 10.2569 13.5029L19.5554 4.27552C19.612 4.21597 19.68 4.16837 19.7553 4.13551C19.8305 4.10266 19.9116 4.08522 19.9937 4.08421C20.0758 4.08321 20.1573 4.09867 20.2334 4.12967C20.3094 4.16068 20.3785 4.20661 20.4366 4.26476C20.4946 4.32291 20.5405 4.3921 20.5715 4.46827C20.6024 4.54443 20.6178 4.62603 20.6168 4.70826C20.6158 4.79049 20.5984 4.87169 20.5656 4.94707C20.5328 5.02246 20.4853 5.09051 20.4258 5.14723L11.1061 14.3959C10.9887 14.5003 10.8385 14.5604 10.6815 14.5659V14.5659Z" fill="#07412C" stroke="#07412C" stroke-width="0.383472" stroke-miterlimit="10" />
  <path d="M15.1482 21.2547H6.28706C5.53418 21.2514 4.8131 20.9504 4.28073 20.4172C3.74836 19.884 3.44779 19.1619 3.44444 18.4079V9.53343C3.44779 8.77943 3.74836 8.05726 4.28073 7.52409C4.8131 6.99093 5.53418 6.68991 6.28706 6.68655H11.9765C12.0974 6.69464 12.2108 6.74844 12.2935 6.83707C12.3763 6.92569 12.4224 7.04251 12.4224 7.16387C12.4224 7.28522 12.3763 7.40204 12.2935 7.49067C12.2108 7.57929 12.0974 7.6331 11.9765 7.64118H6.28706C5.78576 7.64118 5.30496 7.84048 4.95029 8.19528C4.59562 8.55008 4.39608 9.03138 4.39552 9.53343V18.4079C4.39608 18.9099 4.59562 19.3912 4.95029 19.746C5.30496 20.1008 5.78576 20.3001 6.28706 20.3001H15.1482C15.6495 20.3001 16.1303 20.1008 16.485 19.746C16.8397 19.3912 17.0392 18.9099 17.0397 18.4079V12.4972C17.0478 12.3762 17.1015 12.2627 17.19 12.1798C17.2785 12.0969 17.3952 12.0507 17.5163 12.0507C17.6375 12.0507 17.7542 12.0969 17.8427 12.1798C17.9312 12.2627 17.9849 12.3762 17.9929 12.4972V18.4079C17.9896 19.1622 17.6887 19.8847 17.1559 20.4179C16.6231 20.9512 15.9015 21.2519 15.1482 21.2547V21.2547Z" fill="#07412C" stroke="#07412C" stroke-width="0.766944" stroke-miterlimit="10" />
</symbol><symbol viewBox="0 0 18 13" id="arrow-d">
    <path d="m2 2 7 8 7-8" stroke="#144633" stroke-width="3" fill="none" fill-rule="evenodd" stroke-linecap="round" />
</symbol><symbol viewBox="0 0 18 13" id="arrow-dropdown">
    <path d="m2 2 7 8 7-8" stroke="#144633" stroke-width="3" fill="none" fill-rule="evenodd" stroke-linecap="round" />
</symbol><symbol viewBox="0 0 5 9" fill="none" id="arrow-e">
<g id="arrow-e_Arrow">
<path id="arrow-e_Vector" d="M0.280096 7.18893L3.18755 4.49668L0.280096 1.80443C-0.0121482 1.53382 -0.0121482 1.09667 0.280096 0.826058C0.57234 0.555446 1.04443 0.555446 1.33667 0.826058L4.77616 4.01096C5.0684 4.28158 5.0684 4.71872 4.77616 4.98933L1.33667 8.17424C1.04443 8.44485 0.57234 8.44485 0.280096 8.17424C-0.00465449 7.90362 -0.0121479 7.45954 0.280096 7.18893Z" fill="#005674" />
</g>
</symbol><symbol viewBox="0 0 10 6" fill="none" id="arrow-e-white">
<g id="arrow-e-white_Arrow-Down">
<path id="arrow-e-white_Vector" d="M1.43595 5.69802L4.68938 2.18454L7.9428 5.69802C8.26982 6.05118 8.79809 6.05118 9.12511 5.69802C9.45213 5.34486 9.45213 4.77437 9.12511 4.42121L5.27634 0.264798C4.94932 -0.0883622 4.42105 -0.0883622 4.09403 0.264798L0.245265 4.42121C-0.0817549 4.77437 -0.0817549 5.34486 0.245265 5.69802C0.572284 6.04213 1.10893 6.05118 1.43595 5.69802Z" fill="#F8F8F8" />
</g>
</symbol><symbol viewBox="0 0 15 26" fill="none" id="arrow-f">
  <path class="mrr-link-arrow" d="M2 2L13 13L2 24" stroke="var(--c-primary)" stroke-width="3" stroke-linecap="round" stroke-linejoin="round" />
</symbol><symbol viewBox="0 0 8 11" id="arrow-g">
    <!-- Generator: sketchtool 61.2 (101010) - https://sketch.com -->
    <title>66BA17E9-E353-4540-BFDA-2A924C4A7902</title>
    <desc>Created with sketchtool.</desc>
    <g id="arrow-g_About-PBA" stroke="none" stroke-width="1" fill="none" fill-rule="evenodd">
        <g id="arrow-g_About-PBA---mobile" transform="translate(-25.000000, -4448.000000)" fill="#FCCEB7">
            <g id="arrow-g_lists/ul" transform="translate(25.000000, 4349.000000)">
                <g id="arrow-g_lists/ul/li-lists/ul/li/mobile" transform="translate(0.000000, 89.000000)">
                    <g id="arrow-g_lists/ul/li">
                        <g id="arrow-g_icons/bullet" transform="translate(0.333333, 10.000000)">
                            <path d="M1.61543888,0.0867780338 L5.68274905,3.97777803 L5.7178945,3.944749 L6.46774905,4.72877803 L7.23858433,5.46543902 L7.20474905,5.49977803 L7.23858433,5.53456113 L6.46674905,6.27177803 L5.7178945,7.05525115 L5.68274905,7.02177803 L1.61543888,10.9132221 L0.0947490484,9.32340999 L4.09174905,5.49977803 L0.0947490484,1.67659016 L1.61543888,0.0867780338 Z" id="arrow-g_chevron-right" />
                        </g>
                    </g>
                </g>
            </g>
        </g>
    </g>
</symbol><symbol viewBox="0 0 47 13" id="arrow-h">
    <!-- Generator: sketchtool 61.2 (101010) - https://sketch.com -->
    <title>51BC4A9A-0594-4D6F-88C8-F8AA5251F531</title>
    <desc>Created with sketchtool.</desc>
    <g id="arrow-h_Homepage" stroke="none" stroke-width="1" fill="black" fill-rule="evenodd">
        <g transform="translate(-1019.000000, -1571.000000)" fill-rule="nonzero" id="arrow-h_PBA-different-from-depression">
            <g transform="translate(0.000000, 1040.000000)">
                <g id="arrow-h_buttons/primary-ghost-w-arrow/white" transform="translate(762.000000, 509.000000)">
                    <g id="arrow-h_content" transform="translate(30.000000, 18.000000)">
                        <g id="arrow-h_icons/long-tail-arrow/white" transform="translate(228.000000, 4.000000)">
                            <path d="M36.5,0.5 L45.5,6.5 L36.5,12.5 L36.5,7.5 L-0.5,7.5 L-0.5,5.5 L36.5,5.5 L36.5,0.5 Z" id="arrow-h_long-tail-arrow-white" />
                        </g>
                    </g>
                </g>
            </g>
        </g>
    </g>
</symbol><symbol viewBox="0 0 13 20" id="arrow-i">
    <path d="m2 2 8 8.178L2.347 18" stroke="#FFF" stroke-width="4" fill="black" fill-rule="evenodd" stroke-linecap="round" />
</symbol><symbol viewBox="0 0 26 26" fill="none" id="arrow-j">
  <g clip-path="url(#arrow-j_clip0_446_11653)">
    <path d="M23.6889 21.3801C23.6883 21.9922 23.4448 22.5791 23.012 23.012C22.5791 23.4448 21.9922 23.6883 21.3801 23.6889H4.62222C4.00967 23.6889 3.42218 23.4457 2.98883 23.0128C2.55548 22.5799 2.31172 21.9926 2.31111 21.3801V4.62222C2.31111 4.00928 2.5546 3.42144 2.98802 2.98802C3.42144 2.5546 4.00928 2.31111 4.62222 2.31111H9.82222C10.1287 2.31111 10.4226 2.18937 10.6393 1.97266C10.856 1.75595 10.9778 1.46203 10.9778 1.15556C10.9776 0.84913 10.8558 0.555298 10.6392 0.338622C10.4225 0.121946 10.1286 0.000151884 9.82222 0L4.62222 0C3.39633 0 2.22065 0.486983 1.35382 1.35382C0.486983 2.22065 0 3.39633 0 4.62222L0 21.3801C0.000607883 22.6056 0.487859 23.7807 1.35463 24.647C2.2214 25.5133 3.39673 26 4.62222 26H21.3801C22.6052 25.9994 23.7799 25.5125 24.6462 24.6462C25.5125 23.7799 25.9994 22.6052 26 21.3801V16.1778C25.9998 15.8714 25.8781 15.5775 25.6614 15.3608C25.4447 15.1442 25.1509 15.0224 24.8444 15.0222C24.538 15.0224 24.2442 15.1442 24.0275 15.3608C23.8108 15.5775 23.689 15.8714 23.6889 16.1778V21.3801Z" fill="#282B3A" />
    <path d="M15.0222 1.15556C15.0223 1.46198 15.1441 1.75581 15.3608 1.97249C15.5775 2.18916 15.8713 2.31096 16.1777 2.31111H19.2621C20.2909 2.31111 20.8068 3.55379 20.0789 4.28404L13.7852 10.5783C13.6778 10.6855 13.5927 10.8129 13.5346 10.9531C13.4764 11.0933 13.4465 11.2436 13.4465 11.3953C13.4465 11.5471 13.4764 11.6974 13.5346 11.8376C13.5927 11.9778 13.6778 12.1052 13.7852 12.2124C13.8925 12.3198 14.0198 12.405 14.16 12.4631C14.3002 12.5212 14.4505 12.5511 14.6023 12.5511C14.7541 12.5511 14.9043 12.5212 15.0445 12.4631C15.1847 12.405 15.3121 12.3198 15.4194 12.2124L21.7159 5.92108C22.4439 5.19312 23.6888 5.70842 23.6888 6.73787V9.82222C23.6888 10.1287 23.8106 10.4226 24.0273 10.6393C24.244 10.856 24.5379 10.9778 24.8444 10.9778C25.1508 10.9776 25.4446 10.8558 25.6613 10.6392C25.878 10.4225 25.9998 10.1286 25.9999 9.82222V1.15556C25.9998 0.84913 25.878 0.555298 25.6613 0.338622C25.4446 0.121946 25.1508 0.000151884 24.8444 0L16.1777 0C15.8713 0.000151884 15.5775 0.121946 15.3608 0.338622C15.1441 0.555298 15.0223 0.84913 15.0222 1.15556Z" fill="#282B3A" />
  </g>
  <defs>
    
  </defs>
</symbol><clipPath id="arrow-j_clip0_446_11653">
      <rect width="26" height="26" fill="white" />
    </clipPath><symbol viewBox="0 0 5 9" fill="none" id="arrow-k">
<g id="arrow-k_Arrow">
<path id="arrow-k_Vector" d="M0.280096 7.18893L3.18755 4.49668L0.280096 1.80443C-0.0121482 1.53382 -0.0121482 1.09667 0.280096 0.826058C0.57234 0.555446 1.04443 0.555446 1.33667 0.826058L4.77616 4.01096C5.0684 4.28158 5.0684 4.71872 4.77616 4.98933L1.33667 8.17424C1.04443 8.44485 0.57234 8.44485 0.280096 8.17424C-0.00465449 7.90362 -0.0121479 7.45954 0.280096 7.18893Z" fill="#ffffff" />
</g>
</symbol><symbol viewBox="0 0 15 26" fill="none" id="arrow-link">
  <path class="mrr-link-arrow" d="M2 2L13 13L2 24" stroke="var(--c-primary)" stroke-width="3" stroke-linecap="round" stroke-linejoin="round" />
</symbol><symbol viewBox="0 0 8 11" id="arrow-list">
    <!-- Generator: sketchtool 61.2 (101010) - https://sketch.com -->
    <title>66BA17E9-E353-4540-BFDA-2A924C4A7902</title>
    <desc>Created with sketchtool.</desc>
    <g id="arrow-list_About-PBA" stroke="none" stroke-width="1" fill="none" fill-rule="evenodd">
        <g id="arrow-list_About-PBA---mobile" transform="translate(-25.000000, -4448.000000)" fill="#FCCEB7">
            <g id="arrow-list_lists/ul" transform="translate(25.000000, 4349.000000)">
                <g id="arrow-list_lists/ul/li-lists/ul/li/mobile" transform="translate(0.000000, 89.000000)">
                    <g id="arrow-list_lists/ul/li">
                        <g id="arrow-list_icons/bullet" transform="translate(0.333333, 10.000000)">
                            <path d="M1.61543888,0.0867780338 L5.68274905,3.97777803 L5.7178945,3.944749 L6.46774905,4.72877803 L7.23858433,5.46543902 L7.20474905,5.49977803 L7.23858433,5.53456113 L6.46674905,6.27177803 L5.7178945,7.05525115 L5.68274905,7.02177803 L1.61543888,10.9132221 L0.0947490484,9.32340999 L4.09174905,5.49977803 L0.0947490484,1.67659016 L1.61543888,0.0867780338 Z" id="arrow-list_chevron-right" />
                        </g>
                    </g>
                </g>
            </g>
        </g>
    </g>
</symbol><symbol viewBox="0 0 24 25" fill="none" id="arrow-right">
<g id="arrow-right_arrow-right">
<path id="arrow-right_Vector" fill-rule="evenodd" clip-rule="evenodd" d="M1.5 12.1023C1.5 11.9034 1.57902 11.7126 1.71967 11.5719C1.86032 11.4313 2.05109 11.3523 2.25 11.3523H19.9395L15.219 6.63327C15.0782 6.49244 14.9991 6.30143 14.9991 6.10227C14.9991 5.9031 15.0782 5.7121 15.219 5.57127C15.3598 5.43044 15.5508 5.35132 15.75 5.35132C15.9492 5.35132 16.1402 5.43044 16.281 5.57127L22.281 11.5713C22.3508 11.6409 22.4063 11.7237 22.4441 11.8148C22.4819 11.9059 22.5013 12.0036 22.5013 12.1023C22.5013 12.2009 22.4819 12.2986 22.4441 12.3897C22.4063 12.4808 22.3508 12.5636 22.281 12.6333L16.281 18.6333C16.1402 18.7741 15.9492 18.8532 15.75 18.8532C15.5508 18.8532 15.3598 18.7741 15.219 18.6333C15.0782 18.4924 14.9991 18.3014 14.9991 18.1023C14.9991 17.9031 15.0782 17.7121 15.219 17.5713L19.9395 12.8523H2.25C2.05109 12.8523 1.86032 12.7732 1.71967 12.6326C1.57902 12.4919 1.5 12.3012 1.5 12.1023Z" fill="#253958" />
</g>
</symbol><symbol viewBox="0 0 47 13" id="arrow-white-right">
    <!-- Generator: sketchtool 61.2 (101010) - https://sketch.com -->
    <title>51BC4A9A-0594-4D6F-88C8-F8AA5251F531</title>
    <desc>Created with sketchtool.</desc>
    <g id="arrow-white-right_Homepage" stroke="none" stroke-width="1" fill="black" fill-rule="evenodd">
        <g transform="translate(-1019.000000, -1571.000000)" fill-rule="nonzero" id="arrow-white-right_PBA-different-from-depression">
            <g transform="translate(0.000000, 1040.000000)">
                <g id="arrow-white-right_buttons/primary-ghost-w-arrow/white" transform="translate(762.000000, 509.000000)">
                    <g id="arrow-white-right_content" transform="translate(30.000000, 18.000000)">
                        <g id="arrow-white-right_icons/long-tail-arrow/white" transform="translate(228.000000, 4.000000)">
                            <path d="M36.5,0.5 L45.5,6.5 L36.5,12.5 L36.5,7.5 L-0.5,7.5 L-0.5,5.5 L36.5,5.5 L36.5,0.5 Z" id="arrow-white-right_long-tail-arrow-white" />
                        </g>
                    </g>
                </g>
            </g>
        </g>
    </g>
</symbol><symbol viewBox="0 0 11 49" fill="none" id="brush-stroke">
<g id="brush-stroke_brush-stroke">
<g id="brush-stroke_Group">
<path id="brush-stroke_Path" d="M1.30258 0.439076C1.33046 0.370506 1.34439 0.301935 1.34439 0.208431C1.33046 0.183496 1.33046 0.171029 1.31652 0.164795C1.30258 0.202197 1.28864 0.252066 1.27471 0.295702C1.23289 0.39544 1.26077 0.44531 1.30258 0.439076Z" fill="#005674" />
<path id="brush-stroke_Path_2" d="M1.31679 0.164689C1.33072 0.13352 1.33072 0.108586 1.33072 0.108586C1.31679 0.121053 1.31679 0.13352 1.30285 0.145988C1.30285 0.158455 1.30285 0.158455 1.30285 0.158455C1.30285 0.158455 1.31679 0.158455 1.31679 0.164689Z" fill="#005674" />
<path id="brush-stroke_Path_3" d="M1.83241 18.6036C1.77666 19.9127 1.73485 21.2218 1.70697 22.5308C1.70697 22.5745 1.72091 22.6119 1.73485 22.6119C1.74879 22.6119 1.76272 22.5807 1.76272 22.5371C1.7906 21.228 1.83241 19.9189 1.9021 18.6161C1.9021 18.5724 1.88816 18.535 1.87422 18.5288C1.84635 18.535 1.83241 18.5662 1.83241 18.6036Z" fill="#005674" />
<path id="brush-stroke_Path_4" d="M0.0906227 28.3906C0.0766851 28.3594 0.0627475 28.3594 0.0488099 28.3906C0.0348723 28.4155 0.0348723 28.4654 0.0488099 28.4965C0.0627475 28.5215 0.0766851 28.5215 0.0906227 28.4965C0.10456 28.4654 0.10456 28.4155 0.0906227 28.3906Z" fill="#005674" />
<path id="brush-stroke_Shape" fill-rule="evenodd" clip-rule="evenodd" d="M5.99684 45.0268C5.96029 44.7898 5.92374 44.5609 5.86891 44.3566C5.85643 44.3287 5.86101 44.3007 5.86516 44.2754C5.86708 44.2637 5.86891 44.2525 5.86891 44.2421C5.83236 44.2585 5.79581 44.2095 5.77754 44.1277C5.51784 42.6998 5.38584 41.1861 5.25344 39.668C5.22745 39.3699 5.20145 39.0717 5.17446 38.774C5.14172 38.7666 5.12364 38.7462 5.09397 38.7126L5.08308 38.7004C4.9917 38.5778 4.93688 38.3244 4.95515 38.0628L4.97343 37.8667C5.00084 37.4703 5.02368 37.0739 5.04652 36.6775L5.04653 36.6774L5.04654 36.6773C5.06938 36.2809 5.09222 35.8845 5.11963 35.4881C5.08308 35.3247 5.04653 35.1367 5.04653 34.9323L5.02825 34.8179L5.02825 34.8179L5.02825 34.8179L5.02825 34.8179L5.02824 34.8179L5.02824 34.8178L5.02824 34.8178L5.02821 34.8176C4.92472 34.1701 4.82214 33.5282 4.73585 32.8644C4.71757 32.9052 4.68102 32.9379 4.64447 32.9379C4.57137 32.9216 4.49827 32.7663 4.51655 32.5701V32.284L4.48913 32.6927L4.46172 33.1014C4.46172 33.1423 4.46172 33.175 4.44345 33.2077V34.1231C4.51655 36.8123 4.80895 39.3461 5.17446 41.8636C5.19273 41.9045 5.19273 41.9699 5.17446 42.0026C5.15618 42.0271 5.13791 42.0189 5.11963 41.978C4.98867 41.4615 4.84413 40.9684 4.69992 40.4764C4.4014 39.458 4.10425 38.4443 3.93174 37.2373C3.62106 35.104 3.34693 33.0033 3.1459 30.8209C3.1459 29.205 3.04496 27.6711 2.94061 26.0855C2.89771 25.4335 2.85423 24.7728 2.81695 24.094C2.61592 20.9471 2.59765 17.9719 2.57937 14.8986C2.52455 13.7461 2.8535 12.6917 3.31038 12.5364C3.60279 12.4465 3.85864 12.708 4.04139 13.1821V12.9042L4.09622 12.4547C4.15104 12.0296 4.26069 11.67 4.42517 11.4493L4.6262 11.1387C4.80049 10.9494 4.95971 10.7078 5.11754 10.4683C5.30724 10.1805 5.49495 9.89569 5.70444 9.7083L5.85064 9.78186L5.88719 9.70013C5.99684 9.43857 6.14304 9.25875 6.28924 9.19336L6.472 9.21788C6.67302 9.2751 6.87405 9.40587 7.0568 9.61839C7.1299 9.61022 7.20301 9.63474 7.27611 9.69195C7.45886 9.51213 7.65989 9.42222 7.86091 9.56935C7.91574 9.46309 7.98884 9.47944 8.04367 9.61022C8.05345 9.6321 8.058 9.65868 8.06292 9.68743L8.06292 9.68743C8.06718 9.71237 8.07173 9.73894 8.08022 9.76552C8.11208 9.73227 8.12542 9.71006 8.14177 9.68285C8.15356 9.66324 8.1669 9.64103 8.18987 9.61022C8.20814 9.50396 8.22642 9.43857 8.22642 9.43857C8.24585 9.28648 8.25495 9.21524 8.26196 9.1438C8.26813 9.08088 8.27268 9.0178 8.28124 8.89918L8.28124 8.89912L8.28124 8.89911C8.33607 8.68659 8.42745 8.54764 8.42745 8.54764C8.7564 8.3106 8.7564 8.3106 8.88433 8.3433C8.89347 8.35147 8.89803 8.35964 8.9026 8.36782C8.90717 8.37599 8.91174 8.38416 8.92088 8.39234C8.9757 8.20434 8.9757 8.18799 8.9757 8.13895C8.99398 8.08174 9.03053 8.04904 9.03053 8.04904C9.10363 8.04087 9.10363 8.04087 9.14018 8.00817C9.17673 8 9.19501 8 9.19501 8C9.27306 8.09077 9.28444 8.104 9.29749 8.10593C9.29972 8.10626 9.30199 8.10626 9.30466 8.10626C9.32293 8.13078 9.34121 8.16347 9.34121 8.16347C9.35155 8.23284 9.36189 8.27865 9.36892 8.30981C9.37431 8.33372 9.37776 8.34899 9.37776 8.35964C9.19501 8.62937 9.17673 8.62937 9.17673 8.62937L9.24983 8.68659L9.15846 8.75198L9.23156 8.71928L9.17673 8.85824L9.24983 8.70294L9.24983 8.70295C9.22404 8.92791 9.21645 8.99411 9.22064 9.05955C9.22238 9.08685 9.22618 9.11401 9.23156 9.15249C9.21721 9.25515 9.23665 9.34773 9.24567 9.39071L9.24567 9.39071L9.24567 9.39071C9.24814 9.40248 9.24983 9.41053 9.24983 9.41405C9.26811 9.40587 9.28638 9.40587 9.28638 9.40587L9.28637 9.40602C9.24983 9.74917 9.24983 9.74922 9.21328 10.0843C9.19501 10.117 9.17673 10.1415 9.15846 10.166C9.17673 10.1987 9.19501 10.2641 9.19501 10.3295C9.19501 10.3581 9.19044 10.3867 9.18587 10.4153C9.1813 10.4439 9.17673 10.4725 9.17673 10.5011C9.17673 10.5175 9.17673 10.5257 9.19501 10.542C9.20369 10.5692 9.20825 10.5927 9.2126 10.6151C9.21741 10.6399 9.22196 10.6634 9.23156 10.6891C9.23156 10.7218 9.24983 10.7218 9.24983 10.7218C9.26811 10.8199 9.30466 10.9752 9.41431 11.3594C9.40538 11.4113 9.40081 11.4593 9.39635 11.5063L9.39634 11.5063L9.39634 11.5063L9.39634 11.5063L9.39634 11.5063L9.39634 11.5063L9.39634 11.5063L9.39634 11.5063C9.39167 11.5555 9.3871 11.6035 9.37776 11.6536C9.38614 11.6386 9.39068 11.6254 9.3949 11.613C9.39988 11.5985 9.40442 11.5852 9.41431 11.5719C9.42524 11.5377 9.45581 11.5415 9.48252 11.5448C9.50044 11.547 9.51662 11.5491 9.52396 11.5392C9.66876 10.8107 9.74185 10.026 9.81426 9.24869L9.81636 9.22605C9.81636 9.0871 9.85291 8.95632 9.90774 8.9318C9.96257 8.91545 10.0174 9.01354 10.0357 9.16066C10.4194 10.7545 10.3646 12.708 10.0539 14.3428C10.0174 14.776 9.98084 15.2092 9.96257 15.6424C9.9717 15.6301 9.97627 15.6199 9.98084 15.6097C9.98541 15.5995 9.98998 15.5893 9.99912 15.577C9.98084 15.6914 9.96257 15.8059 9.94429 15.9121V15.9448C9.96257 15.904 9.98541 15.861 10.0083 15.8181L10.0083 15.8181C10.0311 15.7752 10.0539 15.7323 10.0722 15.6914C10.0817 15.6618 10.0862 15.6322 10.091 15.6014C10.0954 15.5728 10.1 15.5432 10.1088 15.5116C10.145 14.8468 10.2452 14.2213 10.3459 13.5926C10.3975 13.2705 10.4492 12.9476 10.4925 12.6181C10.5371 12.2994 10.602 12.0079 10.6666 11.7179C10.708 11.532 10.7493 11.3466 10.785 11.155C10.785 11.0243 10.8398 10.9425 10.8946 10.9507C10.9494 10.9671 10.986 11.0815 10.9677 11.2123C11.0591 12.8633 10.9677 14.7433 10.5291 16.0674C10.5291 16.3699 10.4925 16.6559 10.4012 16.9012V16.9175C10.4194 16.8848 10.4377 16.8541 10.456 16.8235C10.4743 16.7928 10.4925 16.7622 10.5108 16.7295C10.5005 16.8593 10.4666 16.9523 10.4325 17.0458C10.4065 17.1171 10.3804 17.1887 10.3646 17.2771C10.392 17.2649 10.4149 17.2526 10.4377 17.2404C10.4606 17.2281 10.4834 17.2158 10.5108 17.2036C10.4789 17.5924 10.4625 17.9923 10.4462 18.392C10.4159 19.1348 10.3857 19.877 10.255 20.5466C10.255 20.5875 10.255 20.6284 10.2367 20.6692C10.3463 21.1106 10.4377 21.5602 10.456 22.0833C10.4651 21.9934 10.4743 21.9055 10.4834 21.8176C10.4925 21.7298 10.5017 21.6419 10.5108 21.552L10.5133 21.569C10.5673 21.9473 10.6202 22.3182 10.6022 22.7208C10.5839 23.8243 10.3646 25.0667 9.98084 25.647C9.99458 26.1838 10.0072 26.7211 10.0198 27.2585C10.0574 28.8651 10.0951 30.4729 10.1636 32.0715C10.1636 32.186 10.1453 32.284 10.0905 32.3004C10.0539 32.3086 9.99912 32.235 9.99912 32.1287C9.85291 30.5921 9.76154 29.0391 9.68844 27.4779C9.61534 28.7775 9.54224 30.0935 9.52396 31.4258C9.52396 31.5116 9.52853 31.5975 9.5331 31.6833C9.53767 31.7691 9.54224 31.8549 9.54224 31.9407C9.54224 32.1124 9.54224 32.2759 9.52396 32.4475C9.52396 32.6621 9.52367 32.8752 9.52339 33.0873C9.52139 34.5641 9.51946 35.9918 9.61534 37.507C9.70671 38.9946 9.81636 40.2943 9.94429 41.7737C10.1453 43.8498 10.3281 45.7461 10.3281 47.7977C10.3463 48.0674 10.255 48.3208 10.1453 48.3535C10.0357 48.3862 9.92602 48.19 9.92602 47.9121C9.87803 47.3203 9.82865 46.7299 9.77932 46.1402L9.77931 46.1401L9.77929 46.1399C9.47167 42.4624 9.16603 38.8087 9.21328 34.9487C9.21328 34.7065 9.21789 34.4664 9.22248 34.2273C9.22703 33.9903 9.23156 33.7543 9.23156 33.5183C9.21328 33.5264 9.19501 33.5264 9.19501 33.5264C9.14018 33.5264 9.08535 33.4774 9.03053 33.4038C9.01225 33.9433 8.99398 34.4828 8.95743 35.0222L8.95869 35.0371C9.08619 36.5442 9.21304 38.0436 9.14018 39.6485C9.0966 40.5257 9.00683 41.3357 8.91676 42.1483L8.91675 42.1484C8.89352 42.358 8.87026 42.5679 8.84778 42.7791C8.8717 43.2018 8.89759 43.6245 8.92351 44.0478L8.92352 44.0479C8.97679 44.9178 9.0302 45.7901 9.06708 46.6697C9.06708 46.7188 9.06708 46.776 9.0488 46.7923C9.03053 46.8087 9.01225 46.7842 8.99398 46.727C8.84778 45.8278 8.7564 44.9042 8.66502 43.9724C8.59192 44.1195 8.50055 44.2095 8.40917 44.1931C8.29952 44.1849 8.20814 44.0705 8.15332 43.8907V44.5201C8.15332 44.6508 8.11677 44.7489 8.06194 44.7489C8.00712 44.7489 7.97057 44.6427 7.97057 44.5201C7.97057 44.0909 7.97513 43.6618 7.9797 43.2327C7.98427 42.8036 7.98884 42.3745 7.98884 41.9453C7.93402 40.9155 7.87919 39.8856 7.84264 38.8557C7.76954 39.0028 7.69644 39.1009 7.60506 39.1581V39.6322C7.89746 42.5502 8.04367 45.5336 7.98884 48.5415C7.98884 48.5987 7.97057 48.6478 7.95229 48.6478C7.93402 48.6478 7.91574 48.6069 7.91574 48.5497C7.93402 47.6424 7.93402 46.7351 7.91574 45.8278C7.89746 45.8605 7.87919 45.8687 7.86091 45.8278C7.84264 45.7952 7.84264 45.7216 7.86091 45.6889C7.87919 45.648 7.89746 45.648 7.91574 45.6889C7.87919 44.0051 7.76954 42.3377 7.64161 40.6866C7.65989 42.2151 7.67816 43.7517 7.64161 45.2802C7.66052 45.3648 7.67454 45.4516 7.68873 45.5394C7.70197 45.6213 7.71535 45.7041 7.73299 45.787C7.73299 45.836 7.73299 45.8932 7.69644 45.9096C7.67816 45.9259 7.65989 45.8851 7.64161 45.8442C7.64161 45.8197 7.63704 45.7972 7.63247 45.7747C7.62791 45.7522 7.62334 45.7298 7.62334 45.7052C7.60506 45.9913 7.51368 46.2202 7.38576 46.212C7.25783 46.1957 7.16646 45.9505 7.16646 45.648L7.16591 45.6237C7.14782 44.8228 7.1299 44.0298 7.1299 43.2368C7.1299 43.1918 7.12534 43.1489 7.12077 43.106C7.1162 43.0631 7.11163 43.0202 7.11163 42.9752C7.10249 42.9303 7.09335 42.8874 7.08422 42.8444C7.07508 42.8015 7.06594 42.7586 7.0568 42.7137C7.00198 43.9642 6.94715 45.2066 6.89233 46.449C6.89233 46.5553 6.85578 46.6452 6.81923 46.6452C6.78268 46.6452 6.74613 46.5635 6.74613 46.4572C6.56337 44.2748 6.45372 42.0598 6.38062 39.8447C6.29991 39.5234 6.21564 39.2006 6.13095 38.8761L6.13093 38.876C6.02386 38.4658 5.91612 38.0531 5.81409 37.6378V37.9239C5.81409 39.2685 5.97889 40.5012 6.1437 41.7341C6.27445 42.7122 6.40522 43.6903 6.45372 44.7244C6.45372 44.7816 6.43545 44.8307 6.41717 44.8388C6.3989 44.847 6.38062 44.8061 6.38062 44.7489C6.33315 44.0058 6.23943 43.3074 6.14452 42.6002C6.09328 42.2184 6.04169 41.834 5.99684 41.4386C5.97708 41.2692 5.95792 41.1014 5.93892 40.9351L5.93891 40.935L5.9389 40.9349L5.93889 40.9348C5.85246 40.1782 5.76946 39.4515 5.64961 38.7413C5.68242 39.8077 5.77415 40.8477 5.86602 41.8895C5.92766 42.5884 5.98936 43.2881 6.03339 43.9969C6.05167 44.0705 6.03339 44.1522 6.01512 44.2013C6.02804 44.2071 6.03182 44.2128 6.03939 44.2244C6.04253 44.2292 6.04631 44.235 6.05167 44.2421C6.10649 44.4628 6.16132 44.6999 6.19787 44.9451C6.21614 44.9941 6.19787 45.0513 6.17959 45.0759C6.01512 45.1086 5.99684 45.0759 5.99684 45.0268ZM8.57417 14.0404C8.57615 14.0387 8.57791 14.0369 8.57949 14.0351C8.56642 14.0727 8.55589 14.1114 8.55589 14.1549L8.37314 14.3756C8.37314 14.3756 8.46451 14.2039 8.57417 14.0404ZM8.59244 13.9996C8.58804 14.0114 8.58363 14.0232 8.57949 14.0351C8.59244 14.0206 8.59244 14.0068 8.59244 13.9996ZM8.00679 11.196L7.91543 11.3186C7.92723 11.2975 7.94665 11.2729 7.96877 11.245L7.96878 11.245C7.98091 11.2297 7.99385 11.2133 8.00679 11.196ZM9.45205 28.7284C9.45205 27.7884 9.4886 26.8648 9.61653 25.9412C9.62566 26.0556 9.63023 26.168 9.6348 26.2804C9.63937 26.3928 9.64394 26.5051 9.65308 26.6196C9.59825 27.3225 9.52515 28.0255 9.45205 28.7284ZM8.9042 12.8391C9.03213 12.6592 9.14178 12.4631 9.23315 12.2178C9.19559 12.4279 9.1725 12.6551 9.14901 12.8864L9.14901 12.8864C9.12679 13.1051 9.10421 13.3274 9.06868 13.542C9.01385 14.0161 8.95903 14.4901 8.92248 14.9642C8.92248 14.9406 8.91825 14.9152 8.91387 14.8887C8.90913 14.8602 8.9042 14.8304 8.9042 14.8007C8.9042 14.7435 8.9042 14.6373 8.84937 14.6945C8.88592 14.2531 8.9042 13.8035 8.92248 13.3458C8.94075 13.1742 8.92248 13.0025 8.9042 12.8391ZM8.99429 8.92383C8.99429 8.91566 8.99886 8.90953 9.00342 8.9034C9.00799 8.89727 9.01256 8.89114 9.01256 8.88297L9.09445 8.96354C9.07928 8.95438 9.04589 8.94114 8.99429 8.92383ZM9.10394 8.97288C9.10394 8.97047 9.10078 8.96736 9.09445 8.96354L9.10394 8.97288ZM8.82853 8.78477C8.82853 8.80929 8.82853 8.82564 8.81025 8.85016C8.79198 8.82564 8.81025 8.80112 8.82853 8.78477ZM8.71983 9.39782C8.72897 9.38147 8.73811 9.36717 8.74725 9.35286L8.71983 9.39782ZM8.74725 9.35286C8.75638 9.33856 8.76552 9.32425 8.77466 9.30791L8.74725 9.35286ZM6.45403 10.084L5.97887 9.83876L5.99715 9.82241L6.45403 10.084Z" fill="#005674" />
</g>
</g>
</symbol><symbol viewBox="0 0 27 28" fill="none" id="circle-arrow">
<circle cx="13.5" cy="14" r="13.5" transform="rotate(180 13.5 14)" fill="white" />
<path d="M17.3143 17.1891L13.4951 13.0645L9.67584 17.1891C9.29195 17.6036 8.67181 17.6036 8.28792 17.1891C7.90403 16.7745 7.90403 16.1048 8.28792 15.6902L12.806 10.8109C13.1899 10.3964 13.8101 10.3964 14.194 10.8109L18.7121 15.6902C19.096 16.1048 19.096 16.7745 18.7121 17.1891C18.3282 17.593 17.6982 17.6036 17.3143 17.1891Z" fill="#005674" />
</symbol><symbol viewBox="0 0 22 22" fill="none" id="close-modal">
  <path d="M2.2 22L0 19.8L8.8 11L0 2.2L2.2 0L11 8.8L19.8 0L22 2.2L13.2 11L22 19.8L19.8 22L11 13.2L2.2 22Z" fill="#005674" />
</symbol><symbol viewBox="0 0 32 32" fill="none" id="document">
<g id="document_file-05">
<path id="document_Icon" d="M18.6663 3.026V8.53339C18.6663 9.28012 18.6663 9.65349 18.8117 9.93871C18.9395 10.1896 19.1435 10.3936 19.3944 10.5214C19.6796 10.6667 20.0529 10.6667 20.7997 10.6667H26.3071M18.6663 22.6666H10.6663M21.333 17.3333H10.6663M26.6663 13.3176V22.9333C26.6663 25.1735 26.6663 26.2936 26.2304 27.1493C25.8469 27.9019 25.235 28.5138 24.4823 28.8973C23.6267 29.3333 22.5066 29.3333 20.2663 29.3333H11.733C9.4928 29.3333 8.37269 29.3333 7.51705 28.8973C6.7644 28.5138 6.15248 27.9019 5.76898 27.1493C5.33301 26.2936 5.33301 25.1735 5.33301 22.9333V9.06663C5.33301 6.82642 5.33301 5.70631 5.76898 4.85066C6.15248 4.09802 6.7644 3.48609 7.51705 3.1026C8.37269 2.66663 9.4928 2.66663 11.733 2.66663H16.0154C16.9937 2.66663 17.4829 2.66663 17.9433 2.77715C18.3514 2.87513 18.7416 3.03675 19.0995 3.25607C19.5031 3.50343 19.8491 3.84934 20.5409 4.54114L24.7918 8.79211C25.4836 9.48392 25.8295 9.82982 26.0769 10.2335C26.2962 10.5914 26.4578 10.9816 26.5558 11.3897C26.6663 11.85 26.6663 12.3392 26.6663 13.3176Z" stroke="currentColor" stroke-width="2" stroke-linecap="round" stroke-linejoin="round" />
</g>
</symbol><symbol viewBox="0 0 34 34" fill="none" id="dollar-a">
<g id="dollar-a_color palette">
<path id="dollar-a_Vector" d="M17.23 33.46C26.1936 33.46 33.46 26.1936 33.46 17.23C33.46 8.26642 26.1936 1 17.23 1C8.26642 1 1 8.26642 1 17.23C1 26.1936 8.26642 33.46 17.23 33.46Z" stroke="white" stroke-miterlimit="10" />
<path id="dollar-a_Vector_2" d="M17.0266 7.57447C17.1026 7.67575 17.2038 7.72639 17.2545 7.81923C17.3501 7.91968 17.4145 8.04569 17.4399 8.182C17.4654 8.3183 17.4508 8.45907 17.398 8.58726C17.3918 8.77152 17.4088 8.95583 17.4486 9.13586C17.5371 9.22692 17.6476 9.29376 17.7693 9.32997L17.9972 9.40593C18.6431 9.55146 19.2308 9.88648 19.6852 10.3681C19.8342 10.4924 19.9422 10.6589 19.9949 10.8456C20.0476 11.0324 20.0426 11.2308 19.9806 11.4146C19.9806 11.5328 19.9806 11.6847 19.9299 11.8366C19.6222 11.74 19.3532 11.5478 19.1619 11.288C19.0184 11.018 18.7399 10.866 18.5458 10.6213C18.5245 10.5895 18.4956 10.5635 18.4617 10.5458C18.4278 10.5281 18.3899 10.5192 18.3517 10.52C18.039 10.5473 17.7251 10.4828 17.4486 10.3343C17.401 10.6529 17.3756 10.9744 17.3726 11.2965C17.322 11.8873 17.2292 12.4612 17.2292 13.0267C17.2292 13.5921 17.2798 14.1407 17.2292 14.7147C17.208 14.819 17.2203 14.9273 17.2642 15.0243C17.3081 15.1213 17.3815 15.2019 17.4739 15.2548C18.0516 15.671 18.5987 16.1279 19.1113 16.6221C19.3054 16.7909 19.5501 16.9681 19.7527 17.1369C20.176 17.4689 20.5264 17.8846 20.7819 18.3579C21.0375 18.8313 21.1928 19.3523 21.2381 19.8883C21.2381 20.4791 21.0609 21.3738 21.0862 21.9392C21.0826 22.4656 20.9111 22.9772 20.5967 23.3993C20.4029 23.7664 20.0724 24.0423 19.6767 24.1674C19.6767 24.1674 19.4573 24.3193 19.432 24.3193C19.1281 24.0661 19.2801 24.4881 19.0353 24.6147C18.6859 24.7562 18.3147 24.8361 17.9381 24.851C17.8686 24.8365 17.7965 24.8391 17.7282 24.8585C17.6599 24.878 17.5973 24.9137 17.5458 24.9627C17.4943 25.0117 17.4555 25.0724 17.4327 25.1397C17.4099 25.207 17.4038 25.2788 17.4148 25.349C17.4148 25.6191 17.4148 25.8638 17.4148 26.193C17.1954 26.1001 17.0182 26.2942 16.8494 26.193C16.7305 26.1201 16.6378 26.0113 16.5847 25.8824C16.5317 25.7535 16.5209 25.611 16.554 25.4756C16.6046 25.1127 16.6046 25.0789 16.2079 25.0114C15.6793 24.87 15.2039 24.5765 14.8406 24.1674C14.6097 23.9195 14.3615 23.6883 14.0979 23.4753C13.837 23.17 13.621 22.8289 13.4565 22.4625C13.4852 22.2356 13.5538 22.0156 13.6591 21.8126C13.7671 21.7711 13.8856 21.766 13.9968 21.798C14.108 21.8299 14.2057 21.8973 14.2752 21.9899C14.5453 22.3106 14.866 22.5554 15.1192 22.8845C15.2499 23.0964 15.4363 23.2682 15.6581 23.3813C15.8799 23.4945 16.1285 23.5445 16.3767 23.5259C16.4897 22.8702 16.5573 22.2076 16.5793 21.5426C16.5793 21.0446 16.3767 20.5551 16.3261 20.0318C16.2501 19.3144 16.2332 18.5717 16.2079 17.829C16.2079 17.6096 16.1573 17.4576 15.9294 17.3395C15.155 16.9136 14.5016 16.2979 14.0304 15.5502C13.7772 15.1535 13.6337 14.7062 13.3805 14.318C13.2877 14.1661 13.1611 13.7441 13.2877 13.5753C13.4312 13.6934 13.7519 14.2167 13.9545 14.2167C14.0304 14.0226 13.9038 13.896 13.8279 13.7947C13.5644 13.3613 13.3952 12.8773 13.3312 12.3741C13.2672 11.871 13.3099 11.36 13.4565 10.8745C13.6571 10.5015 13.9346 10.1755 14.2707 9.91794C14.6068 9.6604 14.9938 9.47724 15.4061 9.38061C15.7981 9.26843 16.1841 9.13602 16.5624 8.98394C16.5034 8.57531 16.5034 8.16033 16.5624 7.75171C16.5522 7.67382 16.5717 7.59494 16.6171 7.5308C16.6624 7.46667 16.7303 7.42199 16.8072 7.40567C16.9084 7.35503 16.9506 7.47319 17.0266 7.57447ZM15.6424 12.2755C15.4905 12.9001 15.8872 13.4655 16.0391 14.0395C16.0898 14.2589 16.2586 14.5037 16.5118 14.5037C16.4358 13.5415 16.6046 11.8366 16.5118 10.8914C15.6424 11.1783 15.7437 11.9042 15.6424 12.2755ZM17.0941 18.462C17.1701 19.7786 17.2207 21.0868 17.246 22.4034C17.246 22.7242 17.246 23.0449 17.246 23.3656C17.246 23.5175 17.2882 23.6357 17.4401 23.5935C17.7358 23.5716 18.0113 23.4354 18.2082 23.2137C18.4947 22.8401 18.6356 22.3752 18.6049 21.9055C18.5561 21.1379 18.4602 20.3741 18.3179 19.6183C18.2289 19.3363 18.0814 19.0763 17.8851 18.8552C17.6888 18.6342 17.448 18.457 17.1785 18.3354C17.1532 18.4451 17.0941 18.462 17.0941 18.462ZM18.377 18.2679C18.2928 18.0942 18.1747 17.939 18.0298 17.8115C17.8849 17.684 17.716 17.5866 17.533 17.5252C17.7691 17.8327 18.0684 18.086 18.4107 18.2679H18.377Z" fill="white" />
</g>
</symbol><symbol viewBox="0 0 24 25" fill="none" id="download-a">
  <g clip-path="url(#download-a_clip0_11643_102299)">
    <path d="M18.7509 8.04377C18.5456 8.04377 18.3631 8.06658 18.1806 8.08939C17.0855 5.53431 14.5761 3.75488 11.6332 3.75488C8.69026 3.75488 6.158 5.53431 5.08578 8.08939C4.90327 8.06658 4.72076 8.04377 4.51545 8.04377C2.14287 8.04377 0.226562 9.96008 0.226562 12.3326C0.226562 14.7052 2.14287 16.6215 4.51545 16.6215C4.97171 16.6215 5.40516 16.5303 5.8158 16.3934C6.56863 17.2375 7.61804 17.8078 8.78152 17.9675V16.5075C7.66367 16.2793 6.75114 15.5493 6.27206 14.5455C5.79299 14.9334 5.17703 15.1843 4.49263 15.1843C2.91852 15.1843 1.64098 13.9068 1.64098 12.3326C1.64098 10.7585 2.91852 9.481 4.49263 9.481C5.06296 9.481 5.58767 9.64069 6.02112 9.93726C6.47738 7.2453 8.80433 5.21493 11.6332 5.21493C14.462 5.21493 16.7433 7.26812 17.2224 9.96008C17.6787 9.6635 18.2034 9.50381 18.7737 9.50381C20.3478 9.50381 21.6254 10.7814 21.6254 12.3555C21.6254 13.9296 20.3478 15.2071 18.7737 15.2071C18.5456 15.2071 18.3174 15.1843 18.1121 15.1159C17.4733 16.0284 16.4011 16.6215 15.2148 16.6215C14.9639 16.6215 14.7358 16.5759 14.5076 16.5303V17.9675C14.7358 18.0131 14.9867 18.036 15.2148 18.036C16.5836 18.036 17.8155 17.4884 18.7053 16.5987C18.7281 16.5987 18.7509 16.5987 18.7737 16.5987C21.1463 16.5987 23.0626 14.6824 23.0626 12.3098C23.0626 9.93726 21.1235 8.06658 18.7509 8.04377ZM13.0476 12.3326H10.2187V19.4504H7.34428L11.6332 23.7393L15.9221 19.4504H13.0476V12.3326Z" fill="#07412C" />
  </g>
  <defs>
    
  </defs>
</symbol><clipPath id="download-a_clip0_11643_102299">
      <rect width="22.8132" height="22.8132" fill="white" transform="translate(0.226562 0.925781)" />
    </clipPath><symbol viewBox="0 0 24 25" fill="none" id="download-a copy">
  <g clip-path="url(#download-a copy_clip0_11643_102299)">
    <path d="M18.7509 8.04377C18.5456 8.04377 18.3631 8.06658 18.1806 8.08939C17.0855 5.53431 14.5761 3.75488 11.6332 3.75488C8.69026 3.75488 6.158 5.53431 5.08578 8.08939C4.90327 8.06658 4.72076 8.04377 4.51545 8.04377C2.14287 8.04377 0.226562 9.96008 0.226562 12.3326C0.226562 14.7052 2.14287 16.6215 4.51545 16.6215C4.97171 16.6215 5.40516 16.5303 5.8158 16.3934C6.56863 17.2375 7.61804 17.8078 8.78152 17.9675V16.5075C7.66367 16.2793 6.75114 15.5493 6.27206 14.5455C5.79299 14.9334 5.17703 15.1843 4.49263 15.1843C2.91852 15.1843 1.64098 13.9068 1.64098 12.3326C1.64098 10.7585 2.91852 9.481 4.49263 9.481C5.06296 9.481 5.58767 9.64069 6.02112 9.93726C6.47738 7.2453 8.80433 5.21493 11.6332 5.21493C14.462 5.21493 16.7433 7.26812 17.2224 9.96008C17.6787 9.6635 18.2034 9.50381 18.7737 9.50381C20.3478 9.50381 21.6254 10.7814 21.6254 12.3555C21.6254 13.9296 20.3478 15.2071 18.7737 15.2071C18.5456 15.2071 18.3174 15.1843 18.1121 15.1159C17.4733 16.0284 16.4011 16.6215 15.2148 16.6215C14.9639 16.6215 14.7358 16.5759 14.5076 16.5303V17.9675C14.7358 18.0131 14.9867 18.036 15.2148 18.036C16.5836 18.036 17.8155 17.4884 18.7053 16.5987C18.7281 16.5987 18.7509 16.5987 18.7737 16.5987C21.1463 16.5987 23.0626 14.6824 23.0626 12.3098C23.0626 9.93726 21.1235 8.06658 18.7509 8.04377ZM13.0476 12.3326H10.2187V19.4504H7.34428L11.6332 23.7393L15.9221 19.4504H13.0476V12.3326Z" fill="#07412C" />
  </g>
  <defs>
    
  </defs>
</symbol><clipPath id="download-a copy_clip0_11643_102299">
      <rect width="22.8132" height="22.8132" fill="white" transform="translate(0.226562 0.925781)" />
    </clipPath><symbol viewBox="0 0 31 31" fill="none" id="download-b">
<g id="download-b_Download_Icon">

<g mask="url(#download-b_mask0_202_32694)">
<path id="download-b_Subtract" fill-rule="evenodd" clip-rule="evenodd" d="M15.5013 21.959L20.668 16.7923L18.8596 14.984L16.793 16.9861V11.6257H14.2096V16.9861L12.143 14.984L10.3346 16.7923L15.5013 21.959ZM7.7513 28.4173C7.04089 28.4173 6.43273 28.1644 5.92682 27.6585C5.42092 27.1526 5.16797 26.5444 5.16797 25.834V10.334L9.04297 6.45899L12.918 2.58398H23.2513C23.9617 2.58398 24.5699 2.83694 25.0758 3.34284C25.5817 3.84874 25.8346 4.4569 25.8346 5.16732V25.834C25.8346 26.5444 25.5817 27.1526 25.0758 27.6585C24.5699 28.1644 23.9617 28.4173 23.2513 28.4173H7.7513ZM10.334 23.25V25.8333H20.6673V23.25H10.334ZM12.9173 10.334V3.87565L6.45898 10.334H12.9173Z" fill="#00677D" />
</g>
</g>
</symbol><mask id="download-b_mask0_202_32694" style="mask-type:alpha" maskUnits="userSpaceOnUse" x="0" y="0" width="31" height="31">
<rect id="download-b_Bounding box" width="31" height="31" fill="#D9D9D9" />
</mask><symbol viewBox="0 0 32 32" fill="none" id="email-a">
<g id="email-a_drafts">

<g mask="url(#email-a_mask0_202_32685)">
<path id="email-a_drafts_2" d="M15.7896 1.39844L27.9286 8.63696C28.2952 8.86242 28.564 9.15017 28.7349 9.50021C28.9058 9.85024 28.9913 10.2237 28.9913 10.6207V25.1349C28.9913 25.8551 28.7334 26.4732 28.2174 26.9892C27.7015 27.5051 27.0834 27.763 26.3631 27.763H5.21608C4.49577 27.763 3.87767 27.5051 3.36177 26.9892C2.84585 26.4732 2.58789 25.8551 2.58789 25.1349V10.6207C2.58789 10.2237 2.67561 9.85024 2.85105 9.50021C3.02649 9.15017 3.29301 8.86242 3.65062 8.63696L15.7896 1.39844ZM15.7896 16.7762L26.6111 10.3963L15.7896 3.93209L4.96809 10.3963L15.7896 16.7762Z" fill="#00677D" />
</g>
</g>
</symbol><mask id="email-a_mask0_202_32685" style="mask-type:alpha" maskUnits="userSpaceOnUse" x="0" y="0" width="32" height="32">
<rect id="email-a_Bounding box" width="31.5789" height="31.5789" fill="#D9D9D9" />
</mask><symbol viewBox="0 0 264 512" id="facebook"><path d="M76.7 512V283H0v-91h76.7v-71.7C76.7 42.4 124.3 0 193.8 0c33.3 0 61.9 2.5 70.2 3.6V85h-48.2c-37.8 0-45.1 18-45.1 44.3V192H256l-11.7 91h-73.6v229" /></symbol><symbol viewBox="0 0 264 512" id="facebook copy"><path d="M76.7 512V283H0v-91h76.7v-71.7C76.7 42.4 124.3 0 193.8 0c33.3 0 61.9 2.5 70.2 3.6V85h-48.2c-37.8 0-45.1 18-45.1 44.3V192H256l-11.7 91h-73.6v229" /></symbol><symbol viewBox="0 0 32 32" fill="none" id="glass">
<g id="glass_search-refraction">
<path id="glass_Icon" d="M28 28L22.2 22.2M14.6667 8C18.3486 8 21.3333 10.9848 21.3333 14.6667M25.3333 14.6667C25.3333 20.5577 20.5577 25.3333 14.6667 25.3333C8.77563 25.3333 4 20.5577 4 14.6667C4 8.77563 8.77563 4 14.6667 4C20.5577 4 25.3333 8.77563 25.3333 14.6667Z" stroke="currentColor" stroke-width="2" stroke-linecap="round" stroke-linejoin="round" />
</g>
</symbol><symbol viewBox="0 0 448 512" id="instagram"><path d="M224.1 141c-63.6 0-114.9 51.3-114.9 114.9s51.3 114.9 114.9 114.9S339 319.5 339 255.9 287.7 141 224.1 141zm0 189.6c-41.1 0-74.7-33.5-74.7-74.7s33.5-74.7 74.7-74.7 74.7 33.5 74.7 74.7-33.6 74.7-74.7 74.7zm146.4-194.3c0 14.9-12 26.8-26.8 26.8-14.9 0-26.8-12-26.8-26.8s12-26.8 26.8-26.8 26.8 12 26.8 26.8zm76.1 27.2c-1.7-35.9-9.9-67.7-36.2-93.9-26.2-26.2-58-34.4-93.9-36.2-37-2.1-147.9-2.1-184.9 0-35.8 1.7-67.6 9.9-93.9 36.1s-34.4 58-36.2 93.9c-2.1 37-2.1 147.9 0 184.9 1.7 35.9 9.9 67.7 36.2 93.9s58 34.4 93.9 36.2c37 2.1 147.9 2.1 184.9 0 35.9-1.7 67.7-9.9 93.9-36.2 26.2-26.2 34.4-58 36.2-93.9 2.1-37 2.1-147.8 0-184.8zM398.8 388c-7.8 19.6-22.9 34.7-42.6 42.6-29.5 11.7-99.5 9-132.1 9s-102.7 2.6-132.1-9c-19.6-7.8-34.7-22.9-42.6-42.6-11.7-29.5-9-99.5-9-132.1s-2.6-102.7 9-132.1c7.8-19.6 22.9-34.7 42.6-42.6 29.5-11.7 99.5-9 132.1-9s102.7-2.6 132.1 9c19.6 7.8 34.7 22.9 42.6 42.6 11.7 29.5 9 99.5 9 132.1s2.7 102.7-9 132.1z" /></symbol><symbol viewBox="0 0 448 512" id="instagram copy"><path d="M224.1 141c-63.6 0-114.9 51.3-114.9 114.9s51.3 114.9 114.9 114.9S339 319.5 339 255.9 287.7 141 224.1 141zm0 189.6c-41.1 0-74.7-33.5-74.7-74.7s33.5-74.7 74.7-74.7 74.7 33.5 74.7 74.7-33.6 74.7-74.7 74.7zm146.4-194.3c0 14.9-12 26.8-26.8 26.8-14.9 0-26.8-12-26.8-26.8s12-26.8 26.8-26.8 26.8 12 26.8 26.8zm76.1 27.2c-1.7-35.9-9.9-67.7-36.2-93.9-26.2-26.2-58-34.4-93.9-36.2-37-2.1-147.9-2.1-184.9 0-35.8 1.7-67.6 9.9-93.9 36.1s-34.4 58-36.2 93.9c-2.1 37-2.1 147.9 0 184.9 1.7 35.9 9.9 67.7 36.2 93.9s58 34.4 93.9 36.2c37 2.1 147.9 2.1 184.9 0 35.9-1.7 67.7-9.9 93.9-36.2 26.2-26.2 34.4-58 36.2-93.9 2.1-37 2.1-147.8 0-184.8zM398.8 388c-7.8 19.6-22.9 34.7-42.6 42.6-29.5 11.7-99.5 9-132.1 9s-102.7 2.6-132.1-9c-19.6-7.8-34.7-22.9-42.6-42.6-11.7-29.5-9-99.5-9-132.1s-2.6-102.7 9-132.1c7.8-19.6 22.9-34.7 42.6-42.6 29.5-11.7 99.5-9 132.1-9s102.7-2.6 132.1 9c19.6 7.8 34.7 22.9 42.6 42.6 11.7 29.5 9 99.5 9 132.1s2.7 102.7-9 132.1z" /></symbol><symbol viewBox="0 0 14 14" fill="none" id="link">
<path d="M11.7642 2.23556C10.9664 1.44 9.90641 1 8.77975 1C7.65308 1 6.59308 1.44 5.7953 2.23556L5.26197 2.76889C5.17753 2.85333 5.13086 2.96444 5.13086 3.08222C5.13086 3.2 5.17753 3.31333 5.26197 3.39556C5.43086 3.56444 5.72197 3.56444 5.89086 3.39556L6.42419 2.86222C7.05308 2.23556 7.89086 1.88889 8.77975 1.88889C9.66864 1.88889 10.5064 2.23556 11.1353 2.86444C11.7642 3.49333 12.1109 4.33111 12.1109 5.22C12.1109 6.10889 11.7642 6.94667 11.1353 7.57556L10.602 8.10889C10.5175 8.19333 10.4709 8.30444 10.4709 8.42222C10.4709 8.54 10.5175 8.65333 10.602 8.73556C10.6864 8.82 10.7975 8.86667 10.9153 8.86667C11.0331 8.86667 11.1464 8.82 11.2286 8.73556L11.762 8.20222C12.5597 7.40667 12.9997 6.34667 12.9997 5.22C12.9997 4.09333 12.5597 3.03333 11.7642 2.23556Z" fill="#232734" stroke="#232734" stroke-width="0.25" stroke-linejoin="round" />
<path d="M8.10889 10.6022L7.57556 11.1355C6.94667 11.7644 6.10889 12.1111 5.22 12.1111C4.33111 12.1111 3.49333 11.7644 2.86444 11.1355C2.23556 10.5066 1.88889 9.66884 1.88889 8.77995C1.88889 7.89107 2.23556 7.05329 2.86444 6.4244L3.39778 5.89107C3.48222 5.80662 3.52889 5.69551 3.52889 5.57773C3.52889 5.45995 3.48222 5.34662 3.39778 5.2644C3.22444 5.09107 2.94222 5.09107 2.76889 5.2644L2.23556 5.79773C1.44 6.59329 1 7.65329 1 8.77995C1 9.90662 1.44 10.9666 2.23556 11.7644C3.03333 12.56 4.09333 13 5.22 13C6.34667 13 7.40667 12.56 8.20444 11.7644L8.73778 11.2311C8.82222 11.1466 8.86889 11.0355 8.86889 10.9177C8.86889 10.8 8.82222 10.6866 8.73778 10.6044C8.56444 10.4288 8.28222 10.4288 8.10889 10.6044V10.6022Z" fill="#232734" stroke="#232734" stroke-width="0.25" stroke-linejoin="round" />
<path d="M8.64419 4.72891L4.72863 8.64447C4.5553 8.8178 4.5553 9.10002 4.72863 9.27336C4.81308 9.3578 4.92419 9.40447 5.04197 9.40447C5.15974 9.40447 5.27308 9.3578 5.3553 9.27336L9.27085 5.35558C9.44419 5.18225 9.44419 4.90002 9.27085 4.72669C9.09974 4.55558 8.81752 4.55558 8.64419 4.72891Z" fill="#232734" stroke="#232734" stroke-width="0.25" stroke-linejoin="round" />
</symbol><symbol viewBox="0 0 26 26" fill="none" id="link-out">
  <g clip-path="url(#link-out_clip0_446_11653)">
    <path d="M23.6889 21.3801C23.6883 21.9922 23.4448 22.5791 23.012 23.012C22.5791 23.4448 21.9922 23.6883 21.3801 23.6889H4.62222C4.00967 23.6889 3.42218 23.4457 2.98883 23.0128C2.55548 22.5799 2.31172 21.9926 2.31111 21.3801V4.62222C2.31111 4.00928 2.5546 3.42144 2.98802 2.98802C3.42144 2.5546 4.00928 2.31111 4.62222 2.31111H9.82222C10.1287 2.31111 10.4226 2.18937 10.6393 1.97266C10.856 1.75595 10.9778 1.46203 10.9778 1.15556C10.9776 0.84913 10.8558 0.555298 10.6392 0.338622C10.4225 0.121946 10.1286 0.000151884 9.82222 0L4.62222 0C3.39633 0 2.22065 0.486983 1.35382 1.35382C0.486983 2.22065 0 3.39633 0 4.62222L0 21.3801C0.000607883 22.6056 0.487859 23.7807 1.35463 24.647C2.2214 25.5133 3.39673 26 4.62222 26H21.3801C22.6052 25.9994 23.7799 25.5125 24.6462 24.6462C25.5125 23.7799 25.9994 22.6052 26 21.3801V16.1778C25.9998 15.8714 25.8781 15.5775 25.6614 15.3608C25.4447 15.1442 25.1509 15.0224 24.8444 15.0222C24.538 15.0224 24.2442 15.1442 24.0275 15.3608C23.8108 15.5775 23.689 15.8714 23.6889 16.1778V21.3801Z" fill="#282B3A" />
    <path d="M15.0222 1.15556C15.0223 1.46198 15.1441 1.75581 15.3608 1.97249C15.5775 2.18916 15.8713 2.31096 16.1777 2.31111H19.2621C20.2909 2.31111 20.8068 3.55379 20.0789 4.28404L13.7852 10.5783C13.6778 10.6855 13.5927 10.8129 13.5346 10.9531C13.4764 11.0933 13.4465 11.2436 13.4465 11.3953C13.4465 11.5471 13.4764 11.6974 13.5346 11.8376C13.5927 11.9778 13.6778 12.1052 13.7852 12.2124C13.8925 12.3198 14.0198 12.405 14.16 12.4631C14.3002 12.5212 14.4505 12.5511 14.6023 12.5511C14.7541 12.5511 14.9043 12.5212 15.0445 12.4631C15.1847 12.405 15.3121 12.3198 15.4194 12.2124L21.7159 5.92108C22.4439 5.19312 23.6888 5.70842 23.6888 6.73787V9.82222C23.6888 10.1287 23.8106 10.4226 24.0273 10.6393C24.244 10.856 24.5379 10.9778 24.8444 10.9778C25.1508 10.9776 25.4446 10.8558 25.6613 10.6392C25.878 10.4225 25.9998 10.1286 25.9999 9.82222V1.15556C25.9998 0.84913 25.878 0.555298 25.6613 0.338622C25.4446 0.121946 25.1508 0.000151884 24.8444 0L16.1777 0C15.8713 0.000151884 15.5775 0.121946 15.3608 0.338622C15.1441 0.555298 15.0223 0.84913 15.0222 1.15556Z" fill="#282B3A" />
  </g>
  <defs>
    
  </defs>
</symbol><clipPath id="link-out_clip0_446_11653">
      <rect width="26" height="26" fill="white" />
    </clipPath><symbol fill="#000000" viewBox="0 0 310 310" id="linkedin">
<g id="linkedin_XMLID_801_">
	<path id="linkedin_XMLID_802_" d="M72.16,99.73H9.927c-2.762,0-5,2.239-5,5v199.928c0,2.762,2.238,5,5,5H72.16c2.762,0,5-2.238,5-5V104.73
		C77.16,101.969,74.922,99.73,72.16,99.73z" />
	<path id="linkedin_XMLID_803_" d="M41.066,0.341C18.422,0.341,0,18.743,0,41.362C0,63.991,18.422,82.4,41.066,82.4
		c22.626,0,41.033-18.41,41.033-41.038C82.1,18.743,63.692,0.341,41.066,0.341z" />
	<path id="linkedin_XMLID_804_" d="M230.454,94.761c-24.995,0-43.472,10.745-54.679,22.954V104.73c0-2.761-2.238-5-5-5h-59.599
		c-2.762,0-5,2.239-5,5v199.928c0,2.762,2.238,5,5,5h62.097c2.762,0,5-2.238,5-5v-98.918c0-33.333,9.054-46.319,32.29-46.319
		c25.306,0,27.317,20.818,27.317,48.034v97.204c0,2.762,2.238,5,5,5H305c2.762,0,5-2.238,5-5V194.995
		C310,145.43,300.549,94.761,230.454,94.761z" />
</g>
</symbol><symbol viewBox="0 0 27 28" fill="none" id="loading">
<g id="loading_Icon-Circle-Arrow">
<circle id="loading_Ellipse 17" cx="13.5" cy="14" r="13.5" transform="rotate(-90 13.5 14)" fill="white" />
<g id="loading_device_reset">

<g mask="url(#loading_mask0_609_51077)">
<path id="loading_device_reset_2" d="M14 23C11.7 23 9.69583 22.2375 7.9875 20.7125C6.27917 19.1875 5.3 17.2833 5.05 15H7.1C7.33333 16.7333 8.10417 18.1667 9.4125 19.3C10.7208 20.4333 12.25 21 14 21C15.95 21 17.6042 20.3208 18.9625 18.9625C20.3208 17.6042 21 15.95 21 14C21 12.05 20.3208 10.3958 18.9625 9.0375C17.6042 7.67917 15.95 7 14 7C12.85 7 11.775 7.26667 10.775 7.8C9.775 8.33333 8.93333 9.06667 8.25 10H11V12H5V6H7V8.35C7.85 7.28333 8.8875 6.45833 10.1125 5.875C11.3375 5.29167 12.6333 5 14 5C15.25 5 16.4208 5.2375 17.5125 5.7125C18.6042 6.1875 19.5542 6.82917 20.3625 7.6375C21.1708 8.44583 21.8125 9.39583 22.2875 10.4875C22.7625 11.5792 23 12.75 23 14C23 15.25 22.7625 16.4208 22.2875 17.5125C21.8125 18.6042 21.1708 19.5542 20.3625 20.3625C19.5542 21.1708 18.6042 21.8125 17.5125 22.2875C16.4208 22.7625 15.25 23 14 23Z" fill="#005674" />
</g>
</g>
</g>
</symbol><mask id="loading_mask0_609_51077" style="mask-type:alpha" maskUnits="userSpaceOnUse" x="2" y="2" width="24" height="24">
<rect id="loading_Bounding box" x="2" y="2" width="24" height="24" fill="#D9D9D9" />
</mask><symbol viewBox="0 0 32 32" id="menu"><path d="M2 6h28v6H2zm0 8h28v6H2zm0 8h28v6H2z" /></symbol><symbol viewBox="0 0 32 32" id="menu copy"><path d="M2 6h28v6H2zm0 8h28v6H2zm0 8h28v6H2z" /></symbol><symbol viewBox="0 0 32 32" fill="none" id="message">
<g id="message_message-chat-circle">
<path id="message_Icon" d="M8.12614 14.9717C8.04327 14.4376 8.00027 13.8904 8.00027 13.3333C8.00027 7.44226 12.8073 2.66663 18.7371 2.66663C24.6669 2.66663 29.474 7.44226 29.474 13.3333C29.474 14.6641 29.2287 15.9379 28.7805 17.1126C28.6875 17.3566 28.6409 17.4786 28.6198 17.5738C28.5989 17.6682 28.5908 17.7346 28.5885 17.8312C28.5862 17.9288 28.5994 18.0362 28.6259 18.2511L29.1627 22.6113C29.2208 23.0833 29.2498 23.3193 29.1713 23.4909C29.1025 23.6413 28.9803 23.7607 28.8284 23.826C28.6551 23.9005 28.4198 23.866 27.9493 23.797L23.7023 23.1745C23.4805 23.142 23.3696 23.1258 23.2686 23.1263C23.1687 23.1269 23.0996 23.1343 23.0019 23.1548C22.903 23.1756 22.7768 23.2229 22.5243 23.3175C21.3466 23.7586 20.0702 24 18.7371 24C18.1795 24 17.6319 23.9577 17.0972 23.8763M10.1758 29.3333C14.129 29.3333 17.3337 26.05 17.3337 22C17.3337 17.9499 14.129 14.6666 10.1758 14.6666C6.22257 14.6666 3.01787 17.9499 3.01787 22C3.01787 22.8141 3.14736 23.5972 3.38639 24.3289C3.48743 24.6382 3.53795 24.7929 3.55453 24.8985C3.57184 25.0088 3.57488 25.0708 3.56843 25.1823C3.56226 25.289 3.53554 25.4097 3.48212 25.651L2.66699 29.3333L6.66006 28.788C6.87801 28.7582 6.98699 28.7433 7.08215 28.744C7.18235 28.7446 7.23553 28.7501 7.3338 28.7697C7.42713 28.7883 7.56587 28.8372 7.84335 28.9352C8.57445 29.1932 9.35914 29.3333 10.1758 29.3333Z" stroke="currentColor" stroke-width="2" stroke-linecap="round" stroke-linejoin="round" />
</g>
</symbol><symbol viewBox="0 0 10 3" fill="none" id="minus-b">
<rect x="0.588135" y="0.799927" width="9.35474" height="1.35474" fill="#00677D" />
</symbol><symbol viewBox="0 0 169 167" fill="none" id="play">
<path id="play_Icon / Play" d="M84.5 0C37.856 0 0 37.2738 0 83.2004C0 129.127 37.856 166.401 84.5 166.401C131.144 166.401 169 129.127 169 83.2004C169 37.2738 131.144 0 84.5 0ZM67.6 112.321V54.0803C67.6 50.669 71.5715 48.6722 74.36 50.7522L113.822 79.8724C116.103 81.5364 116.103 84.8644 113.822 86.5284L74.36 115.649C71.5715 117.729 67.6 115.732 67.6 112.321Z" fill="#005674" />
</symbol><symbol viewBox="0 0 64 64" fill="none" id="play-video">
<g id="play-video_wrapper">
<g id="play-video_Union">
<path d="M32 60.0021C24.5739 60.0021 17.452 57.0521 12.201 51.8011C6.94999 46.55 4 39.4281 4 32.0021C4 24.576 6.94999 17.4541 12.201 12.2031C17.452 6.95207 24.5739 4.00208 32 4.00208C39.4261 4.00208 46.548 6.95207 51.799 12.2031C57.05 17.4541 60 24.576 60 32.0021C60 39.4281 57.05 46.55 51.799 51.8011C46.548 57.0521 39.4261 60.0021 32 60.0021ZM32 64.0021C40.4869 64.0021 48.6263 60.6307 54.6274 54.6295C60.6286 48.6283 64 40.489 64 32.0021C64 23.5151 60.6286 15.3758 54.6274 9.37466C48.6263 3.37349 40.4869 0.0020752 32 0.0020752C23.5131 0.0020752 15.3737 3.37349 9.37258 9.37466C3.37142 15.3758 0 23.5151 0 32.0021C0 40.489 3.37142 48.6283 9.37258 54.6295C15.3737 60.6307 23.5131 64.0021 32 64.0021Z" fill="#EBE9E1" />
<path d="M25.084 20.2221C25.4111 20.0536 25.7784 19.9787 26.1454 20.0055C26.5124 20.0323 26.8648 20.1599 27.164 20.3741L41.164 30.3741C41.4233 30.5591 41.6346 30.8033 41.7804 31.0865C41.9262 31.3697 42.0023 31.6836 42.0023 32.0021C42.0023 32.3206 41.9262 32.6345 41.7804 32.9176C41.6346 33.2008 41.4233 33.4451 41.164 33.6301L27.164 43.6301C26.8649 43.8441 26.5126 43.9716 26.1458 43.9984C25.7791 44.0252 25.412 43.9504 25.0849 43.7821C24.7579 43.6138 24.4836 43.3587 24.2922 43.0446C24.1008 42.7306 23.9997 42.3698 24 42.0021V22.0021C23.9996 21.6344 24.1006 21.2737 24.2918 20.9597C24.4831 20.6457 24.7572 20.3905 25.084 20.2221Z" fill="#EBE9E1" />
</g>
</g>
</symbol><symbol viewBox="0 0 21 21" fill="none" id="plus-a">
<g id="plus-a_Icon-Circle-Arrow">
<circle id="plus-a_Ellipse 17" cx="10.3095" cy="10.2238" r="9.84066" transform="rotate(-90 10.3095 10.2238)" fill="white" />
<path id="plus-a_add" d="M9.27686 11.1014H5.2677V9.76502H9.27686V5.75586H10.6132V9.76502H14.6224V11.1014H10.6132V15.1106H9.27686V11.1014Z" fill="#0E7FA7" />
</g>
</symbol><symbol viewBox="0 0 10 10" fill="none" id="plus-b">
  <path d="M4.1322 5.6484H0.123047V4.31201H4.1322V0.302856H5.46859V4.31201H9.47775V5.6484H5.46859V9.65756H4.1322V5.6484Z" fill="#00829C" />
</symbol><symbol viewBox="0 0 32 32" fill="none" id="print">
<g id="print_print">

<g mask="url(#print_mask0_202_32707)">
<path id="print_print_2" d="M23.6485 9.23229H7.93002V4.13281H23.6485V9.23229ZM23.2842 16.4539C23.6694 16.4539 23.9973 16.3166 24.2681 16.0421C24.5388 15.7676 24.6742 15.4502 24.6742 15.0899C24.6742 14.7076 24.5383 14.3811 24.2666 14.1103C23.9949 13.8396 23.6725 13.7042 23.2994 13.7042C22.926 13.7042 22.6035 13.8401 22.3319 14.1119C22.0604 14.3836 21.9246 14.7061 21.9246 15.0792C21.9246 15.4468 22.0604 15.7679 22.3319 16.0423C22.6035 16.3167 22.921 16.4539 23.2842 16.4539ZM21.4252 25.6273V20.5463H10.1533V25.6273H21.4252ZM23.6485 27.8506H7.93002V22.4609H2.66016V14.2153C2.66016 13.2073 3.0155 12.3505 3.72618 11.6451C4.43688 10.9396 5.29384 10.5869 6.29706 10.5869H25.2815C26.2966 10.5869 27.1565 10.9396 27.8613 11.6451C28.566 12.3505 28.9184 13.2073 28.9184 14.2153V22.4609H23.6485V27.8506Z" fill="#00677D" />
</g>
</g>
</symbol><mask id="print_mask0_202_32707" style="mask-type:alpha" maskUnits="userSpaceOnUse" x="0" y="0" width="32" height="32">
<rect id="print_Bounding box" width="31.5789" height="31.5789" fill="#D9D9D9" />
</mask><symbol viewBox="0 0 12 39" fill="none" id="quote">
  <path d="M1.64216 0.552583C1.67723 0.466317 1.69476 0.380051 1.69476 0.262416C1.67723 0.231047 1.67723 0.215362 1.65969 0.20752C1.64216 0.254574 1.62462 0.317312 1.60709 0.372209C1.55449 0.497686 1.58955 0.560425 1.64216 0.552583Z" fill="#005674" />
  <path d="M1.66062 0.207315C1.67815 0.168103 1.67815 0.136734 1.67815 0.136734C1.66062 0.152418 1.66062 0.168103 1.64308 0.183788C1.64308 0.199472 1.64308 0.199472 1.64308 0.199472C1.64308 0.199472 1.66062 0.199472 1.66062 0.207315Z" fill="#005674" />
  <path d="M2.30881 23.4047C2.23867 25.0515 2.18607 26.6984 2.151 28.3453C2.151 28.4002 2.16854 28.4473 2.18607 28.4473C2.20361 28.4473 2.22114 28.4081 2.22114 28.3532C2.25621 26.7063 2.30881 25.0594 2.39648 23.4203C2.39648 23.3654 2.37895 23.3184 2.36142 23.3105C2.32635 23.3184 2.30881 23.3576 2.30881 23.4047Z" fill="#005674" />
  <path d="M0.118561 35.7174C0.101027 35.6782 0.0834925 35.6782 0.0659581 35.7174C0.0484237 35.7488 0.0484237 35.8115 0.0659581 35.8507C0.0834925 35.8821 0.101027 35.8821 0.118561 35.8507C0.136096 35.8115 0.136096 35.7488 0.118561 35.7174Z" fill="#005674" />
  <path fill-rule="evenodd" clip-rule="evenodd" d="M6.52606 35.5258C6.49099 35.2984 6.45593 35.0788 6.40332 34.8828C6.39134 34.856 6.39573 34.8292 6.39972 34.8049C6.40157 34.7936 6.40332 34.7829 6.40332 34.773C6.36825 34.7887 6.33318 34.7416 6.31565 34.6632C6.06648 33.2931 5.93983 31.8408 5.8128 30.3842L5.8128 30.3842C5.78786 30.0983 5.76291 29.8121 5.73702 29.5264C5.70561 29.5194 5.68826 29.4998 5.65979 29.4676L5.64934 29.4559C5.56167 29.3382 5.50907 29.0951 5.5266 28.8442L5.54414 28.6559C5.57044 28.2756 5.59236 27.8952 5.61427 27.5149C5.63619 27.1345 5.65811 26.7542 5.68441 26.3738C5.64934 26.217 5.61427 26.0366 5.61427 25.8405L5.59674 25.7308C5.49743 25.1094 5.39899 24.4934 5.31619 23.8564C5.29866 23.8956 5.26359 23.927 5.22852 23.927C5.15838 23.9113 5.08824 23.7623 5.10578 23.5741V23.2996L5.07949 23.6916L5.05317 24.0839C5.05317 24.1231 5.05317 24.1544 5.03564 24.1858V25.0641C5.10578 27.6443 5.38633 30.0754 5.73702 32.4909C5.75455 32.5301 5.75455 32.5928 5.73702 32.6242C5.71948 32.6477 5.70195 32.6399 5.68441 32.6006C5.55877 32.1051 5.42011 31.6321 5.28175 31.1601L5.28175 31.16L5.28174 31.16L5.28174 31.16L5.28173 31.16L5.28173 31.16L5.28172 31.1599L5.28171 31.1599C4.99529 30.1828 4.7102 29.2101 4.54468 28.0521C4.24659 26.0052 3.98358 23.9897 3.7907 21.8958C3.7907 20.3454 3.69385 18.8737 3.59373 17.3524L3.59373 17.3523C3.55256 16.7268 3.51084 16.0928 3.47508 15.4416C3.2822 12.4223 3.26467 9.56767 3.24713 6.61894C3.19453 5.51317 3.51015 4.50151 3.94851 4.3525C4.22906 4.26624 4.47454 4.51719 4.64988 4.97205V4.70541L4.70249 4.27408C4.75509 3.86628 4.8603 3.52121 5.01811 3.30947L5.21098 3.01146C5.37821 2.82982 5.53097 2.59804 5.68241 2.36827C5.86442 2.0921 6.04452 1.81884 6.24551 1.63905L6.38579 1.70963L6.42086 1.63121C6.52606 1.38025 6.66634 1.20772 6.80661 1.14498L6.98196 1.16851C7.17484 1.22341 7.36771 1.34888 7.54306 1.55279C7.6132 1.54494 7.68333 1.56847 7.75347 1.62337C7.92882 1.45083 8.12169 1.36457 8.31457 1.50573C8.36718 1.40378 8.43731 1.41947 8.48992 1.54494C8.49931 1.56594 8.50367 1.59144 8.50838 1.61902L8.50839 1.61902L8.50839 1.61903L8.50839 1.61903L8.50839 1.61903C8.51248 1.64296 8.51684 1.66845 8.52498 1.69395C8.55555 1.66205 8.56836 1.64074 8.58405 1.61463C8.59535 1.59581 8.60816 1.57451 8.63019 1.54494C8.64773 1.44299 8.66526 1.38025 8.66526 1.38025C8.70033 1.10578 8.70033 1.10577 8.71786 0.862673V0.86267L8.71786 0.862658C8.77047 0.658757 8.85814 0.525437 8.85814 0.525437C9.17376 0.298009 9.17376 0.298009 9.2965 0.329379C9.30527 0.337221 9.30965 0.345063 9.31403 0.352906C9.31842 0.360748 9.3228 0.36859 9.33157 0.376433C9.38417 0.196059 9.38417 0.180374 9.38417 0.13332C9.4017 0.0784235 9.43677 0.0470541 9.43677 0.0470541C9.50691 0.0392117 9.50691 0.0392117 9.54198 0.00784235C9.57705 0 9.59458 0 9.59458 0C9.66947 0.0870878 9.68039 0.0997838 9.69291 0.101635C9.69505 0.101951 9.69723 0.101951 9.69979 0.101951C9.71732 0.125478 9.73486 0.156847 9.73486 0.156847C9.74478 0.223391 9.7547 0.26735 9.76144 0.29724L9.76144 0.297247L9.76144 0.297249C9.76662 0.320193 9.76993 0.334847 9.76993 0.345063C9.59458 0.603861 9.57705 0.603861 9.57705 0.603861L9.64719 0.658757L9.55951 0.721496L9.62965 0.690127L9.57705 0.823447L9.64719 0.674442C9.61212 0.980294 9.61212 0.980294 9.62965 1.10577C9.61589 1.20427 9.63454 1.2931 9.64319 1.33433C9.64556 1.34563 9.64719 1.35335 9.64719 1.35673C9.66472 1.34888 9.68225 1.34888 9.68225 1.34888L9.64687 1.68019L9.61212 1.9998C9.59458 2.03117 9.57705 2.05469 9.55952 2.07822L9.55951 2.07822C9.57705 2.10959 9.59458 2.17233 9.59458 2.23507C9.59458 2.26252 9.5902 2.28997 9.58582 2.31741L9.58582 2.31742C9.58143 2.34486 9.57705 2.37231 9.57705 2.39976C9.57705 2.41544 9.57705 2.42329 9.59458 2.43897C9.60291 2.46505 9.60729 2.48759 9.61146 2.50911L9.61146 2.50911C9.61607 2.53289 9.62045 2.55543 9.62965 2.58013C9.62965 2.6115 9.64719 2.6115 9.64719 2.6115C9.66472 2.70561 9.69979 2.85461 9.805 3.22321C9.79643 3.27302 9.79205 3.31909 9.78776 3.36417C9.78327 3.41133 9.77889 3.45741 9.76993 3.50553C9.77797 3.49114 9.78232 3.47841 9.78637 3.46656C9.79115 3.45258 9.7955 3.43984 9.805 3.42711C9.81549 3.39426 9.84482 3.39791 9.87044 3.40111C9.88763 3.40325 9.90316 3.40519 9.9102 3.39574C10.0491 2.69671 10.1193 1.94384 10.1887 1.19807V1.19807L10.1908 1.17635C10.1908 1.04303 10.2258 0.917555 10.2784 0.894028C10.331 0.878343 10.3836 0.972451 10.4012 1.11361C10.7694 2.64287 10.7168 4.51719 10.4187 6.08566C10.3836 6.50131 10.3486 6.91695 10.331 7.3326C10.3398 7.32083 10.3442 7.31103 10.3486 7.30123C10.3529 7.29142 10.3573 7.28162 10.3661 7.26986C10.3486 7.37965 10.331 7.48944 10.3135 7.59139V7.62276C10.331 7.58356 10.3529 7.54239 10.3749 7.50122L10.3749 7.50122L10.3749 7.50121C10.3968 7.46003 10.4187 7.41886 10.4362 7.37965C10.4453 7.35122 10.4497 7.3228 10.4542 7.29328C10.4585 7.2658 10.4628 7.23737 10.4713 7.20712C10.5061 6.56925 10.6022 5.9691 10.6988 5.36585L10.6988 5.36584C10.7483 5.05684 10.798 4.74703 10.8395 4.43093C10.8823 4.12509 10.9445 3.84546 11.0065 3.5672C11.0462 3.3888 11.0858 3.21097 11.1201 3.02715C11.1201 2.90167 11.1727 2.82325 11.2253 2.83109C11.2779 2.84677 11.313 2.95657 11.2954 3.08204C11.3831 4.6662 11.2954 6.46994 10.8746 7.7404C10.8746 8.03057 10.8395 8.30505 10.7519 8.54032V8.556C10.7694 8.52464 10.7869 8.49523 10.8045 8.46582C10.822 8.43641 10.8395 8.407 10.8571 8.37563C10.8471 8.50018 10.8146 8.58941 10.7819 8.6791C10.757 8.74752 10.732 8.81622 10.7168 8.90107C10.7431 8.8893 10.765 8.87754 10.7869 8.86578C10.8088 8.85401 10.8308 8.84225 10.8571 8.83048C10.8264 9.20359 10.8107 9.58725 10.7951 9.97073C10.766 10.6835 10.737 11.3955 10.6116 12.038C10.6116 12.0772 10.6116 12.1164 10.594 12.1556C10.6992 12.5791 10.7869 13.0105 10.8045 13.5124C10.8132 13.4261 10.822 13.3418 10.8308 13.2575L10.8308 13.2575C10.8395 13.1732 10.8483 13.0889 10.8571 13.0026L10.8594 13.019C10.9112 13.3819 10.962 13.7377 10.9447 14.1241C10.9272 15.1828 10.7168 16.3748 10.3486 16.9316C10.3617 17.4466 10.3738 17.9621 10.3859 18.4776L10.3859 18.4778C10.422 20.0193 10.4582 21.5619 10.5239 23.0957C10.5239 23.2055 10.5064 23.2996 10.4538 23.3153C10.4187 23.3231 10.3661 23.2526 10.3661 23.1506C10.2258 21.6763 10.1381 20.1862 10.068 18.6883C9.99787 19.9353 9.92774 21.1979 9.9102 22.4762C9.9102 22.5585 9.91459 22.6409 9.91897 22.7232C9.92335 22.8055 9.92774 22.8879 9.92774 22.9702C9.92774 23.1349 9.92774 23.2918 9.9102 23.4565C9.9102 23.6623 9.90993 23.8668 9.90965 24.0703C9.90773 25.4873 9.90588 26.8571 9.99787 28.3109C10.0855 29.7382 10.1908 30.9851 10.3135 32.4046C10.5064 34.3965 10.6817 36.216 10.6817 38.1844C10.6992 38.4432 10.6116 38.6863 10.5064 38.7177C10.4012 38.749 10.296 38.5608 10.296 38.2942C10.2499 37.7262 10.2025 37.1597 10.1552 36.5938C9.86003 33.0654 9.56678 29.5598 9.61212 25.8562C9.61212 25.6239 9.61654 25.3935 9.62094 25.1642L9.62094 25.1641C9.62531 24.9367 9.62965 24.7103 9.62965 24.4838C9.61212 24.4917 9.59458 24.4917 9.59458 24.4917C9.54198 24.4917 9.48938 24.4446 9.43677 24.374C9.41924 24.8916 9.4017 25.4092 9.36664 25.9268L9.36784 25.9411C9.49018 27.3871 9.61189 28.8257 9.54198 30.3656C9.50016 31.2072 9.41403 31.9843 9.32762 32.764C9.30532 32.9652 9.28301 33.1665 9.26143 33.3692C9.28439 33.7748 9.30922 34.1803 9.33409 34.5865L9.3341 34.5866C9.38521 35.4212 9.43646 36.2581 9.47184 37.1022C9.47184 37.1492 9.47184 37.2041 9.45431 37.2198C9.43677 37.2355 9.41924 37.2119 9.4017 37.157C9.26143 36.2944 9.17376 35.4082 9.08609 34.5142C9.01595 34.6553 8.92828 34.7416 8.8406 34.7259C8.7354 34.7181 8.64773 34.6083 8.59512 34.4358V35.0396C8.59512 35.1651 8.56005 35.2592 8.50745 35.2592C8.45485 35.2592 8.41978 35.1572 8.41978 35.0396C8.41978 34.6279 8.42416 34.2162 8.42854 33.8045L8.42855 33.8044C8.43293 33.3927 8.43731 32.981 8.43731 32.5693C8.38471 31.5811 8.33211 30.593 8.29704 29.6049C8.2269 29.746 8.15676 29.8401 8.06909 29.895V30.3499C8.34964 33.1496 8.48992 36.0121 8.43731 38.8981C8.43731 38.9529 8.41978 39 8.40224 39C8.38471 39 8.36717 38.9608 8.36717 38.9059C8.38471 38.0354 8.38471 37.1649 8.36717 36.2944C8.34964 36.3258 8.33211 36.3336 8.31457 36.2944C8.29704 36.263 8.29704 36.1924 8.31457 36.1611C8.33211 36.1219 8.34964 36.1219 8.36717 36.1611C8.33211 34.5455 8.2269 32.9457 8.10416 31.3616C8.12169 32.8281 8.13923 34.3024 8.10416 35.769C8.1223 35.8501 8.13576 35.9334 8.14937 36.0176C8.16207 36.0962 8.17491 36.1757 8.19183 36.2552C8.19183 36.3022 8.19183 36.3571 8.15676 36.3728C8.13923 36.3885 8.12169 36.3493 8.10416 36.3101C8.10416 36.2866 8.09978 36.265 8.09539 36.2434C8.09101 36.2218 8.08662 36.2003 8.08662 36.1768C8.06909 36.4512 7.98142 36.6708 7.85868 36.663C7.73594 36.6473 7.64826 36.412 7.64826 36.1219L7.64774 36.0985C7.63038 35.3301 7.6132 34.5692 7.6132 33.8084C7.6132 33.7652 7.60881 33.7241 7.60443 33.6829C7.60005 33.6417 7.59566 33.6005 7.59566 33.5574C7.58691 33.5144 7.57816 33.4733 7.56941 33.4322L7.56936 33.4319C7.56059 33.3908 7.55183 33.3496 7.54306 33.3065C7.49045 34.5063 7.43785 35.6984 7.38525 36.8904C7.38525 36.9924 7.35018 37.0786 7.31511 37.0786C7.28004 37.0786 7.24497 37.0002 7.24497 36.8983C7.06963 34.8043 6.96442 32.6791 6.89429 30.5538C6.81696 30.246 6.73622 29.9366 6.65508 29.6258L6.65491 29.6251L6.65478 29.6246L6.65476 29.6246L6.65475 29.6245L6.65474 29.6245L6.65473 29.6244L6.65472 29.6244L6.6547 29.6243L6.65469 29.6243L6.65468 29.6243L6.65467 29.6242L6.65466 29.6242C6.55195 29.2307 6.4486 28.8347 6.35072 28.4364V28.7108C6.35072 30.0009 6.50884 31.1837 6.66697 32.3666C6.79242 33.305 6.91788 34.2435 6.96442 35.2357C6.96442 35.2906 6.94689 35.3376 6.92935 35.3455C6.91182 35.3533 6.89429 35.3141 6.89429 35.2592C6.84874 34.5462 6.75882 33.8762 6.66775 33.1976L6.66774 33.1975C6.61858 32.8312 6.56909 32.4624 6.52606 32.083C6.50722 31.9216 6.48895 31.7616 6.47083 31.6029L6.47067 31.6016L6.47047 31.5998L6.47046 31.5997C6.38754 30.8737 6.3079 30.1765 6.19291 29.4951C6.22439 30.5183 6.3124 31.5162 6.40055 32.5157C6.45969 33.1863 6.51889 33.8576 6.56113 34.5377C6.57867 34.6083 6.56113 34.6867 6.5436 34.7338C6.556 34.7393 6.55963 34.7449 6.56689 34.7559C6.5699 34.7605 6.57353 34.7661 6.57867 34.773C6.63127 34.9847 6.68387 35.2121 6.71894 35.4474C6.73648 35.4945 6.71894 35.5494 6.70141 35.5729C6.5436 35.6043 6.52606 35.5729 6.52606 35.5258ZM8.99883 5.79557C9.00073 5.79387 9.00242 5.79217 9.00394 5.79048C8.9914 5.82654 8.9813 5.86369 8.9813 5.90536L8.80595 6.1171C8.80595 6.1171 8.89362 5.95241 8.99883 5.79557ZM9.01636 5.75636C9.01214 5.76769 9.00791 5.77903 9.00394 5.79048C9.01636 5.77658 9.01636 5.76335 9.01636 5.75636ZM8.45421 3.06641L8.36654 3.18404C8.37786 3.16378 8.3965 3.14026 8.41772 3.11346L8.41773 3.11346L8.41775 3.11342L8.41776 3.11341C8.4294 3.09872 8.4418 3.08305 8.45421 3.06641ZM9.84032 19.8881C9.84032 18.9862 9.87539 18.1001 9.99813 17.2139C10.0069 17.3237 10.0113 17.4315 10.0157 17.5393C10.0201 17.6472 10.0244 17.755 10.0332 17.8648C9.9806 18.5392 9.91046 19.2137 9.84032 19.8881ZM9.31533 4.64291C9.43807 4.47037 9.54328 4.28216 9.63095 4.04689C9.59491 4.24839 9.57276 4.46646 9.55022 4.68833C9.5289 4.89821 9.50724 5.11148 9.47314 5.31735L9.47314 5.31735C9.42054 5.77221 9.36794 6.22706 9.33287 6.68192C9.33287 6.6593 9.32882 6.63486 9.32461 6.60949C9.32006 6.58208 9.31533 6.55358 9.31533 6.52507C9.31533 6.47017 9.31533 6.36822 9.26273 6.42312C9.2978 5.99963 9.31533 5.5683 9.33287 5.12913C9.3504 4.96444 9.33287 4.79975 9.31533 4.64291ZM9.40269 0.88638C9.40269 0.878537 9.40708 0.872656 9.41146 0.866774C9.41584 0.860892 9.42023 0.85501 9.42023 0.847168L9.4988 0.924479C9.48424 0.915687 9.4522 0.902987 9.40269 0.88638ZM9.5079 0.933434C9.5079 0.931127 9.50487 0.928142 9.4988 0.924479L9.5079 0.933434ZM9.24332 0.752985C9.24332 0.776512 9.24332 0.792197 9.22578 0.815724C9.20825 0.792197 9.22578 0.76867 9.24332 0.752985ZM9.13798 1.34121C9.14675 1.32553 9.15551 1.3118 9.16428 1.29808L9.13798 1.34121ZM9.16428 1.29808C9.17305 1.28435 9.18182 1.27063 9.19058 1.25494L9.16428 1.29808ZM6.96484 1.99949L6.50895 1.76422L6.52648 1.74854L6.96484 1.99949Z" fill="#005674" />
</symbol><symbol viewBox="0 0 30 28" fill="none" id="savings-cost">

<g mask="url(#savings-cost_mask0_265_10729)">
<path d="M23.835 0H0.974976V22.93H23.835V0Z" fill="#144633" />
</g>

<g mask="url(#savings-cost_mask1_265_10729)">
<path d="M29.025 5.07031H6.16504V28.0003H29.025V5.07031Z" fill="#144633" />
</g>
<path d="M14.615 25.0898L13.465 26.2498C13.185 26.5298 12.825 26.6698 12.465 26.6698C12.105 26.6698 11.735 26.5298 11.465 26.2498L10.315 25.0898H9.375L10.985 26.7198C11.145 26.8798 11.315 26.9998 11.505 27.0898H13.425C13.615 26.9998 13.785 26.8798 13.935 26.7198L15.545 25.0898H14.615Z" fill="#F3F5F5" />

<g mask="url(#savings-cost_mask2_265_10729)">
<path d="M20.125 8.84961H9.46497V18.7296H20.125V8.84961Z" fill="#144633" />
</g>
<path d="M25.005 26.0898C25.005 26.6398 24.555 27.0898 24.005 27.0898H4.005C3.455 27.0898 3.005 26.6398 3.005 26.0898C3.005 25.5398 3.455 25.0898 4.005 25.0898H24.005C24.555 25.0898 25.005 25.5398 25.005 26.0898Z" fill="#144633" />
</symbol><mask id="savings-cost_mask0_265_10729" style="mask-type:luminance" maskUnits="userSpaceOnUse" x="2" y="1" width="21" height="21">
<path d="M11.065 10.0402C13.125 7.9502 16.425 7.8902 18.575 9.8402L22.695 5.6702L22.835 5.5802L18.835 1.5302C18.155 0.840195 17.035 0.840195 16.345 1.5302L2.65502 15.3802C1.97502 16.0702 1.97502 17.2102 2.65502 17.9002L6.63502 21.9302L10.875 17.6402C8.95502 15.4702 9.01502 12.1302 11.075 10.0402" fill="white" />
</mask><mask id="savings-cost_mask1_265_10729" style="mask-type:luminance" maskUnits="userSpaceOnUse" x="7" y="6" width="21" height="22">
<path d="M27.345 10.2003L23.255 6.07031L23.165 6.21031L19.035 10.3803C20.675 12.5303 20.525 15.6403 18.575 17.6203C17.515 18.6903 16.125 19.2303 14.725 19.2303C13.555 19.2303 12.385 18.8503 11.405 18.0903L7.15503 22.3803L11.225 26.4903C11.905 27.1803 13.025 27.1803 13.705 26.4903L27.345 12.7103C28.025 12.0203 28.025 10.9003 27.345 10.2103" fill="white" />
</mask><mask id="savings-cost_mask2_265_10729" style="mask-type:luminance" maskUnits="userSpaceOnUse" x="10" y="10" width="9" height="8">
<path d="M16.615 16.0198C15.175 17.3198 14.065 17.7298 13.035 16.8398L14.775 15.1798C15.035 15.3798 15.285 15.2798 15.585 15.0398L14.925 14.4098L13.635 15.2998C12.765 15.8998 11.995 15.7298 11.455 15.2198C10.465 14.2798 10.925 13.1898 12.275 11.8898L11.745 11.3798L12.065 11.0798L12.595 11.5898C13.735 10.5798 14.995 9.85976 16.135 10.7498L14.395 12.4098C14.095 12.1698 13.805 12.2598 13.515 12.4798L14.125 13.0598L15.245 12.2798C16.435 11.4498 17.175 11.4498 17.895 12.1298C19.125 13.2998 18.065 14.6498 16.935 15.7298L17.465 16.2398L17.145 16.5398L16.615 16.0298V16.0198ZM13.045 12.8698C12.785 13.1398 12.735 13.2998 12.865 13.4298C12.985 13.5598 13.085 13.5298 13.425 13.2698L13.045 12.8698ZM16.075 14.7698C16.635 14.4698 16.635 14.3298 16.435 14.2198C16.295 14.1498 16.075 14.0698 15.675 14.2198L15.295 14.3598L16.065 14.7598L16.075 14.7698Z" fill="white" />
</mask><symbol viewBox="0 0 30 28" fill="none" id="savings-cost copy">

<g mask="url(#savings-cost copy_mask0_265_10729)">
<path d="M23.835 0H0.974976V22.93H23.835V0Z" fill="#144633" />
</g>

<g mask="url(#savings-cost copy_mask1_265_10729)">
<path d="M29.025 5.07031H6.16504V28.0003H29.025V5.07031Z" fill="#144633" />
</g>
<path d="M14.615 25.0898L13.465 26.2498C13.185 26.5298 12.825 26.6698 12.465 26.6698C12.105 26.6698 11.735 26.5298 11.465 26.2498L10.315 25.0898H9.375L10.985 26.7198C11.145 26.8798 11.315 26.9998 11.505 27.0898H13.425C13.615 26.9998 13.785 26.8798 13.935 26.7198L15.545 25.0898H14.615Z" fill="#F3F5F5" />

<g mask="url(#savings-cost copy_mask2_265_10729)">
<path d="M20.125 8.84961H9.46497V18.7296H20.125V8.84961Z" fill="#144633" />
</g>
<path d="M25.005 26.0898C25.005 26.6398 24.555 27.0898 24.005 27.0898H4.005C3.455 27.0898 3.005 26.6398 3.005 26.0898C3.005 25.5398 3.455 25.0898 4.005 25.0898H24.005C24.555 25.0898 25.005 25.5398 25.005 26.0898Z" fill="#144633" />
</symbol><mask id="savings-cost copy_mask0_265_10729" style="mask-type:luminance" maskUnits="userSpaceOnUse" x="2" y="1" width="21" height="21">
<path d="M11.065 10.0402C13.125 7.9502 16.425 7.8902 18.575 9.8402L22.695 5.6702L22.835 5.5802L18.835 1.5302C18.155 0.840195 17.035 0.840195 16.345 1.5302L2.65502 15.3802C1.97502 16.0702 1.97502 17.2102 2.65502 17.9002L6.63502 21.9302L10.875 17.6402C8.95502 15.4702 9.01502 12.1302 11.075 10.0402" fill="white" />
</mask><mask id="savings-cost copy_mask1_265_10729" style="mask-type:luminance" maskUnits="userSpaceOnUse" x="7" y="6" width="21" height="22">
<path d="M27.345 10.2003L23.255 6.07031L23.165 6.21031L19.035 10.3803C20.675 12.5303 20.525 15.6403 18.575 17.6203C17.515 18.6903 16.125 19.2303 14.725 19.2303C13.555 19.2303 12.385 18.8503 11.405 18.0903L7.15503 22.3803L11.225 26.4903C11.905 27.1803 13.025 27.1803 13.705 26.4903L27.345 12.7103C28.025 12.0203 28.025 10.9003 27.345 10.2103" fill="white" />
</mask><mask id="savings-cost copy_mask2_265_10729" style="mask-type:luminance" maskUnits="userSpaceOnUse" x="10" y="10" width="9" height="8">
<path d="M16.615 16.0198C15.175 17.3198 14.065 17.7298 13.035 16.8398L14.775 15.1798C15.035 15.3798 15.285 15.2798 15.585 15.0398L14.925 14.4098L13.635 15.2998C12.765 15.8998 11.995 15.7298 11.455 15.2198C10.465 14.2798 10.925 13.1898 12.275 11.8898L11.745 11.3798L12.065 11.0798L12.595 11.5898C13.735 10.5798 14.995 9.85976 16.135 10.7498L14.395 12.4098C14.095 12.1698 13.805 12.2598 13.515 12.4798L14.125 13.0598L15.245 12.2798C16.435 11.4498 17.175 11.4498 17.895 12.1298C19.125 13.2998 18.065 14.6498 16.935 15.7298L17.465 16.2398L17.145 16.5398L16.615 16.0298V16.0198ZM13.045 12.8698C12.785 13.1398 12.735 13.2998 12.865 13.4298C12.985 13.5598 13.085 13.5298 13.425 13.2698L13.045 12.8698ZM16.075 14.7698C16.635 14.4698 16.635 14.3298 16.435 14.2198C16.295 14.1498 16.075 14.0698 15.675 14.2198L15.295 14.3598L16.065 14.7598L16.075 14.7698Z" fill="white" />
</mask><symbol viewBox="0 0 17 19" fill="none" id="speaker">
<path id="speaker_Vector" d="M11.5357 0.594204V18.4063C11.5357 18.6407 11.3959 18.8522 11.1775 18.9478C10.9481 19.047 10.6961 18.9994 10.5249 18.8504L5.23313 14.2501H1.82145C0.817224 14.2501 0 13.4509 0 12.4689V6.53153C0 5.54949 0.817224 4.75032 1.82145 4.75032H5.23313L10.5249 0.15C10.704 -0.00558421 10.9598 -0.0434695 11.177 0.0520083C11.396 0.148258 11.5357 0.360281 11.5357 0.594139L11.5357 0.594204ZM15.2211 5.30194C14.9837 5.06982 14.6004 5.06982 14.3631 5.30194C14.1251 5.53406 14.1251 5.90998 14.3631 6.14154C15.2806 7.03852 15.7857 8.23139 15.7857 9.50025C15.7857 10.7691 15.2805 11.962 14.3631 12.859C14.1251 13.0905 14.1251 13.4659 14.3631 13.698C14.6005 13.9313 14.9837 13.9313 15.2211 13.698C16.3686 12.577 17 11.0861 17 9.50025C17 7.91443 16.3686 6.42351 15.2211 5.30194Z" fill="#005674" />
</symbol><symbol viewBox="0 0 768 48" preserveAspectRatio="none" id="top-border">
<path d="M241.283 15.337C98.3615 29.6176 20.877 18.502 0 11.1592V48H768V21.4138C646.845 -9.72996 419.936 -2.51371 241.283 15.337Z" />
</symbol><symbol viewBox="0 0 768 48" preserveAspectRatio="none" id="top-border copy">
<path d="M241.283 15.337C98.3615 29.6176 20.877 18.502 0 11.1592V48H768V21.4138C646.845 -9.72996 419.936 -2.51371 241.283 15.337Z" />
</symbol><symbol viewBox="0 0 768 48" preserveAspectRatio="none" id="top-wave-border">
  <path fill="black" d="M241.283 15.337C98.3615 29.6176 20.877 18.502 0 11.1592V48H768V21.4138C646.845 -9.72996 419.936 -2.51371 241.283 15.337Z" />
</symbol><symbol viewBox="0 0 26 28" id="twitter"><path d="M25.312 6.375a10.85 10.85 0 01-2.531 2.609c.016.219.016.438.016.656 0 6.672-5.078 14.359-14.359 14.359-2.859 0-5.516-.828-7.75-2.266.406.047.797.063 1.219.063 2.359 0 4.531-.797 6.266-2.156a5.056 5.056 0 01-4.719-3.5c.313.047.625.078.953.078.453 0 .906-.063 1.328-.172a5.048 5.048 0 01-4.047-4.953v-.063a5.093 5.093 0 002.281.641 5.044 5.044 0 01-2.25-4.203c0-.938.25-1.797.688-2.547a14.344 14.344 0 0010.406 5.281 5.708 5.708 0 01-.125-1.156 5.045 5.045 0 015.047-5.047 5.03 5.03 0 013.687 1.594 9.943 9.943 0 003.203-1.219 5.032 5.032 0 01-2.219 2.781c1.016-.109 2-.391 2.906-.781z" /></symbol><symbol viewBox="0 0 26 28" id="twitter copy"><path d="M25.312 6.375a10.85 10.85 0 01-2.531 2.609c.016.219.016.438.016.656 0 6.672-5.078 14.359-14.359 14.359-2.859 0-5.516-.828-7.75-2.266.406.047.797.063 1.219.063 2.359 0 4.531-.797 6.266-2.156a5.056 5.056 0 01-4.719-3.5c.313.047.625.078.953.078.453 0 .906-.063 1.328-.172a5.048 5.048 0 01-4.047-4.953v-.063a5.093 5.093 0 002.281.641 5.044 5.044 0 01-2.25-4.203c0-.938.25-1.797.688-2.547a14.344 14.344 0 0010.406 5.281 5.708 5.708 0 01-.125-1.156 5.045 5.045 0 015.047-5.047 5.03 5.03 0 013.687 1.594 9.943 9.943 0 003.203-1.219 5.032 5.032 0 01-2.219 2.781c1.016-.109 2-.391 2.906-.781z" /></symbol><symbol viewBox="0 0 38 38" fill="none" id="watch">
<path d="M33.7709 11.5999C33.6044 10.9348 33.2654 10.3254 32.788 9.83321C32.3106 9.34108 31.7118 8.98363 31.0521 8.79698C28.6416 8.20837 18.9997 8.20837 18.9997 8.20837C18.9997 8.20837 9.35775 8.20837 6.94727 8.85304C6.28754 9.03969 5.68874 9.39713 5.21137 9.88927C4.73399 10.3814 4.39495 10.9908 4.22847 11.6559C3.78732 14.1022 3.57153 16.5838 3.58381 19.0696C3.56808 21.574 3.78389 24.0745 4.22847 26.5392C4.412 27.1837 4.75865 27.7699 5.23491 28.2413C5.71117 28.7126 6.30095 29.0532 6.94727 29.23C9.35775 29.8747 18.9997 29.8747 18.9997 29.8747C18.9997 29.8747 28.6416 29.8747 31.0521 29.23C31.7118 29.0434 32.3106 28.6859 32.788 28.1938C33.2654 27.7016 33.6044 27.0922 33.7709 26.4271C34.2086 23.9993 34.4244 21.5366 34.4155 19.0696C34.4313 16.5651 34.2155 14.0646 33.7709 11.5999Z" stroke="currentColor" stroke-width="2" stroke-linecap="round" stroke-linejoin="round" />
<path d="M15.5309 15.0924C15.5309 14.3566 15.5309 13.9887 15.6847 13.7833C15.8187 13.6043 16.0238 13.4923 16.2468 13.4764C16.5028 13.4581 16.8122 13.6571 17.4312 14.055L23.5097 17.9626C24.0468 18.3079 24.3153 18.4805 24.4081 18.7C24.4891 18.8918 24.4891 19.1083 24.4081 19.3001C24.3153 19.5196 24.0468 19.6922 23.5097 20.0375L17.4312 23.9451C16.8122 24.343 16.5028 24.542 16.2468 24.5237C16.0238 24.5077 15.8187 24.3958 15.6847 24.2168C15.5309 24.0114 15.5309 23.6435 15.5309 22.9077V15.0924Z" stroke="currentColor" stroke-width="2" stroke-linecap="round" stroke-linejoin="round" />
</symbol></defs></svg>